<?xml version="1.0" encoding="utf-8"?>
<!-- Generator: Adobe Illustrator 16.0.4, SVG Export Plug-In . SVG Version: 6.00 Build 0)  -->
<!DOCTYPE svg PUBLIC "-//W3C//DTD SVG 1.1//EN" "http://www.w3.org/Graphics/SVG/1.1/DTD/svg11.dtd">
<svg version="1.1" id="Layer_1" xmlns="http://www.w3.org/2000/svg" xmlns:xlink="http://www.w3.org/1999/xlink" x="0px" y="0px"
	 width="150px" height="80px" viewBox="0 0 150 80" enable-background="new 0 0 150 80" xml:space="preserve">
<g>
	<g>
		<path fill="#DBDADA" d="M104.679,68.208h-3v4.863h-3.301v-4.863h-8.291v-1.965l8.668-10.938h2.924v10.156h3V68.208z
			 M98.378,61.833l0.201-2.041h-0.102l-0.906,1.713l-2.799,3.251l-1.41,0.933l1.766-0.227h3.25V61.833z"/>
	</g>
	<path fill="#DBDADA" d="M70.255,7.399c-7.989,0-14.467,6.477-14.467,14.467c0,7.99,6.478,14.467,14.467,14.467
		c7.99,0,14.467-6.477,14.467-14.467C84.722,13.876,78.245,7.399,70.255,7.399z M70.255,33.439c-6.392,0-11.573-5.181-11.573-11.573
		s5.182-11.574,11.573-11.574c6.393,0,11.574,5.182,11.574,11.574S76.647,33.439,70.255,33.439z"/>
	<path fill="#DBDADA" d="M70.255,43.565c-22.062,0-28.934,14.467-28.934,14.467v7.232h42.788
		c1.404-5.566,5.186-10.293,10.312-13.228C90.123,48.059,82.55,43.565,70.255,43.565z M81.505,62.589h-37.75v-3
		c0,0,7.373-13.348,25.023-13.348c9.836,0,16.787,2.664,20.227,5.848C84.903,54.437,82.628,58.136,81.505,62.589z"/>
</g>
</svg>
