<?xml version="1.0" encoding="utf-8"?>
<!-- Generator: Adobe Illustrator 16.0.4, SVG Export Plug-In . SVG Version: 6.00 Build 0)  -->
<!DOCTYPE svg PUBLIC "-//W3C//DTD SVG 1.1//EN" "http://www.w3.org/Graphics/SVG/1.1/DTD/svg11.dtd">
<svg version="1.1" id="Layer_1" xmlns="http://www.w3.org/2000/svg" xmlns:xlink="http://www.w3.org/1999/xlink" x="0px" y="0px"
	 width="150px" height="80px" viewBox="0 0 150 80" enable-background="new 0 0 150 80" xml:space="preserve">
<g>
	<path fill="#DBDADA" d="M70.255,7.399c-7.989,0-14.467,6.477-14.467,14.467c0,7.99,6.478,14.467,14.467,14.467
		c7.99,0,14.468-6.477,14.468-14.467C84.723,13.876,78.245,7.399,70.255,7.399z M70.255,33.439c-6.392,0-11.573-5.181-11.573-11.573
		c0-6.392,5.182-11.574,11.573-11.574c6.394,0,11.574,5.182,11.574,11.574C81.829,28.258,76.646,33.439,70.255,33.439z"/>
	<path fill="#DBDADA" d="M70.255,43.564c-22.062,0-28.934,14.468-28.934,14.468v7.231h42.789
		c1.404-5.565,5.187-10.293,10.312-13.229C90.123,48.059,82.55,43.564,70.255,43.564z M81.505,62.589h-37.75v-3
		c0,0,7.373-13.348,25.023-13.348c9.835,0,16.787,2.663,20.227,5.848C84.902,54.438,82.628,58.136,81.505,62.589z"/>
</g>
<g>
	<path fill="#DBDADA" d="M104.326,68.357c0,0.815-0.156,1.582-0.468,2.302c-0.312,0.72-0.75,1.356-1.313,1.911
		s-1.239,0.992-2.028,1.312c-0.788,0.32-1.668,0.481-2.639,0.481s-1.863-0.147-2.678-0.442c-0.815-0.294-1.525-0.732-2.132-1.312
		c-0.607-0.581-1.079-1.301-1.417-2.158c-0.338-0.858-0.508-1.859-0.508-3.003c0-1.681,0.269-3.22,0.807-4.615
		c0.537-1.396,1.261-2.608,2.171-3.64s1.972-1.867,3.185-2.51c1.214-0.641,2.505-1.057,3.874-1.248l0.754,2.834
		c-0.936,0.14-1.798,0.403-2.587,0.793c-0.789,0.391-1.49,0.858-2.105,1.404c-0.615,0.547-1.131,1.153-1.547,1.82
		c-0.416,0.668-0.711,1.348-0.885,2.041c0.399-0.434,0.885-0.811,1.456-1.131c0.572-0.32,1.317-0.481,2.236-0.481
		c0.866,0,1.659,0.13,2.379,0.39c0.719,0.261,1.335,0.633,1.846,1.119c0.512,0.484,0.906,1.074,1.184,1.768
		S104.326,67.475,104.326,68.357z M100.79,68.514c0-1.837-1.031-2.756-3.094-2.756c-0.764,0-1.404,0.152-1.924,0.455
		c-0.521,0.304-0.885,0.663-1.093,1.079c-0.034,0.19-0.052,0.334-0.052,0.429c0,0.096,0,0.204,0,0.325
		c0,0.399,0.065,0.793,0.195,1.183c0.13,0.391,0.325,0.742,0.585,1.054s0.589,0.563,0.988,0.754c0.398,0.19,0.866,0.286,1.403,0.286
		c0.434,0,0.832-0.074,1.196-0.221c0.364-0.147,0.68-0.352,0.949-0.611c0.269-0.26,0.477-0.559,0.624-0.897
		C100.716,69.255,100.79,68.896,100.79,68.514z"/>
</g>
</svg>
