<?xml version="1.0" encoding="utf-8"?>
<!-- Generator: Adobe Illustrator 16.0.4, SVG Export Plug-In . SVG Version: 6.00 Build 0)  -->
<!DOCTYPE svg PUBLIC "-//W3C//DTD SVG 1.1//EN" "http://www.w3.org/Graphics/SVG/1.1/DTD/svg11.dtd">
<svg version="1.1" id="Layer_1" xmlns="http://www.w3.org/2000/svg" xmlns:xlink="http://www.w3.org/1999/xlink" x="0px" y="0px"
	 width="90px" height="62px" viewBox="0 0 90 62" enable-background="new 0 0 90 62" xml:space="preserve">
<g id="_x32__audio_simple_repeat_all">
	<g>
		<path fill="#FFFFFF" d="M75.662,47.554c0.996-3.188,1.576-6.562,1.576-10.067c0-18.873-15.348-34.227-34.221-34.227
			c-16.73,0-30.669,12.078-33.619,27.965H20.66c2.744-9.781,11.715-16.979,22.357-16.979c12.813,0,23.235,10.425,23.235,23.235
			c0,1.756-0.225,3.451-0.602,5.097L55.379,37.48l7.154,21.252l21.25-7.159L75.662,47.554z"/>
		<path fill="#FFFFFF" d="M18.277,37.445c-0.163-0.375-0.289-0.561-0.379-0.561c-0.174,0-0.441,0.027-0.815,0.082
			c-0.369,0.055-0.644,0.082-0.825,0.082c-0.193,0-0.476-0.027-0.851-0.077c-0.376-0.049-0.659-0.071-0.852-0.071
			c-0.143,0-0.275,0.189-0.396,0.574c-0.486,1.308-0.871,2.283-1.152,2.932c-1.592,3.91-2.543,6.272-2.856,7.093L6.43,57.677
			c-0.144,0.355-0.214,0.579-0.214,0.684c0,0.142,0.102,0.213,0.303,0.213h3.419c0.225,0,0.537-0.766,0.949-2.297
			c0.411-1.525,0.798-2.305,1.162-2.335c0.232-0.021,1.184-0.033,2.855-0.033h2.399c1.579,0,2.557,0.012,2.933,0.033
			c0.455,0.02,0.904,0.793,1.343,2.33c0.443,1.533,0.804,2.302,1.087,2.302c0.19,0,0.479-0.019,0.865-0.049
			c0.385-0.033,0.673-0.044,0.865-0.044c0.193,0,0.474,0.011,0.843,0.044c0.37,0.03,0.649,0.049,0.844,0.049
			c0.243,0,0.363-0.06,0.363-0.183c0-0.071-1.523-4.001-4.572-11.785C19.719,41.068,18.517,38.011,18.277,37.445z M17.198,50.611
			h-1.564c-0.952,0-1.447-0.003-1.487-0.014c-0.77-0.058-1.156-0.266-1.156-0.607c0-0.254,1.05-3.055,3.145-8.4
			c0.363,0.709,0.988,2.196,1.867,4.466c0.913,2.338,1.367,3.658,1.367,3.948C19.369,50.408,18.646,50.611,17.198,50.611z"/>
		<path fill="#FFFFFF" d="M42.166,54.986c-0.161,0-0.394,0.029-0.7,0.087c-0.375,0.063-0.607,0.099-0.7,0.106
			c-1.903,0.184-4.724,0.276-8.459,0.276c-0.182,0-0.273-1.124-0.273-3.374c0-0.525,0.003-1.323,0.014-2.396c0-1.074,0-1.873,0-2.4
			c0-1.083,0.043-2.702,0.121-4.856c0.08-2.16,0.12-3.773,0.12-4.846c0-0.191-0.12-0.287-0.364-0.287
			c-0.182,0-0.467,0.014-0.852,0.047c-0.383,0.027-0.668,0.044-0.851,0.044c-0.193,0-0.477-0.017-0.852-0.044
			c-0.374-0.033-0.652-0.047-0.834-0.047c-0.253,0-0.381,0.109-0.381,0.334c0,1.173,0.053,2.932,0.159,5.277
			c0.107,2.344,0.16,4.102,0.16,5.28c0,1.11-0.037,2.78-0.114,5.009c-0.077,2.227-0.115,3.895-0.115,4.996
			c0,0.254,0.126,0.38,0.377,0.38c0.709,0,1.769-0.017,3.177-0.046c1.408-0.03,2.463-0.047,3.174-0.047
			c0.751,0,1.873,0.044,3.372,0.131c1.498,0.082,2.623,0.129,3.371,0.129c0.286,0,0.462-0.15,0.532-0.44
			c0.15-0.599,0.229-1.604,0.229-3.021C42.485,55.084,42.378,54.986,42.166,54.986z"/>
		<path fill="#FFFFFF" d="M58.25,54.986c-0.166,0-0.396,0.029-0.699,0.087c-0.373,0.063-0.607,0.099-0.701,0.106
			c-1.904,0.184-4.721,0.276-8.459,0.276c-0.182,0-0.273-1.124-0.273-3.374c0-0.525,0.006-1.323,0.014-2.396c0-1.074,0-1.873,0-2.4
			c0-1.083,0.043-2.702,0.123-4.856c0.076-2.16,0.123-3.773,0.123-4.846c0-0.191-0.123-0.287-0.367-0.287
			c-0.18,0-0.467,0.014-0.85,0.047c-0.387,0.027-0.67,0.044-0.854,0.044c-0.191,0-0.476-0.017-0.85-0.044
			c-0.375-0.033-0.652-0.047-0.834-0.047c-0.253,0-0.382,0.109-0.382,0.334c0,1.173,0.054,2.932,0.16,5.277
			c0.106,2.344,0.158,4.102,0.158,5.28c0,1.11-0.035,2.78-0.114,5.009c-0.075,2.227-0.115,3.895-0.115,4.996
			c0,0.254,0.127,0.38,0.382,0.38c0.709,0,1.765-0.017,3.175-0.046c1.406-0.03,2.467-0.047,3.172-0.047
			c0.75,0,1.877,0.044,3.375,0.131c1.498,0.082,2.619,0.129,3.369,0.129c0.283,0,0.465-0.15,0.535-0.44
			c0.148-0.599,0.221-1.604,0.221-3.021C58.568,55.084,58.463,54.986,58.25,54.986z"/>
	</g>
</g>
</svg>
