<?xml version="1.0" encoding="UTF-8"?>
<svg width="80px" height="80px" viewBox="0 0 80 80" version="1.1" xmlns="http://www.w3.org/2000/svg" xmlns:xlink="http://www.w3.org/1999/xlink">
    <!-- Generator: Sketch 49 (51002) - http://www.bohemiancoding.com/sketch -->
    <title>Artboard</title>
    <desc>Created with Sketch.</desc>
    <defs></defs>
    <g id="Artboard" stroke="none" stroke-width="1" fill="none" fill-rule="evenodd">
        <g id="fees" transform="translate(6.000000, 13.000000)" fill="#DADADA" fill-rule="nonzero">
            <path d="M45.6766282,54 L1.56913132,54 C0.702578549,54 0,53.2982357 0,52.4326872 L0,30.870577 C0,30.0050285 0.702578549,29.3032641 1.56913132,29.3032641 L3.5481982,29.3032641 C4.41475097,29.3032641 5.11732952,30.0050285 5.11732952,30.870577 C5.11732952,31.7361255 4.41475097,32.4378898 3.5481982,32.4378898 L3.13826264,32.4378898 L3.13826264,50.8653744 L44.1074969,50.8653744 L44.1074969,50.4858887 C44.1074969,49.6203402 44.8100754,48.9185759 45.6766282,48.9185759 C46.543181,48.9185759 47.2457595,49.6203402 47.2457595,50.4858887 L47.2457595,52.4326872 C47.2457595,53.2982357 46.5433771,54 45.6766282,54 Z M67.4308687,51.3951261 L53.7103844,51.3951261 C52.8438316,51.3951261 52.1412531,50.6933618 52.1412531,49.8278133 C52.1412531,48.9622648 52.8438316,48.2605005 53.7103844,48.2605005 L65.8617374,48.2605005 L65.8617374,3.13462564 L28.7358942,3.13462564 L28.7358942,16.5855002 C28.7358942,17.4510487 28.0333156,18.152813 27.1667628,18.152813 C26.3002101,18.152813 25.5976315,17.4510487 25.5976315,16.5855002 L25.5976315,1.56731282 C25.5976315,0.701764315 26.3002101,0 27.1667628,0 L67.4308687,0 C68.2974215,0 69,0.701764315 69,1.56731282 L69,49.8276174 C69,50.6933618 68.2976176,51.3951261 67.4308687,51.3951261 Z M53.7103844,46.0652829 L9.60308368,46.0652829 C8.73653091,46.0652829 8.03395236,45.3635186 8.03395236,44.4979701 L8.03395236,22.9360558 C8.03395236,22.0705073 8.73653091,21.368743 9.60308368,21.368743 L53.7103844,21.368743 C54.5769372,21.368743 55.2795157,22.0705073 55.2795157,22.9360558 L55.2795157,44.498166 C55.2795157,45.3637145 54.5771333,46.0652829 53.7103844,46.0652829 Z M11.172215,42.9306573 L52.1412531,42.9306573 L52.1412531,24.5033686 L11.172215,24.5033686 L11.172215,42.9306573 Z M60.2136492,44.8756925 C59.6240481,44.8756925 59.0591608,44.5422467 58.7920162,43.973704 C58.4238588,43.1900476 58.7614181,42.2567128 59.5459838,41.888982 C59.977691,41.6866027 60.4423501,41.0342088 60.4423501,40.080303 C60.4423501,39.1263972 59.977691,38.4741992 59.5459838,38.2720158 C58.7614181,37.9042851 58.4238588,36.9709503 58.7920162,36.1872939 C59.1601736,35.4036375 60.0949836,35.0666652 60.879157,35.4342001 C62.5202722,36.2033588 63.5806127,38.0271232 63.5806127,40.080303 C63.5806127,42.1336787 62.5202722,43.957639 60.879157,44.7267978 C60.6635976,44.8278895 60.4368581,44.8756925 60.2136492,44.8756925 Z M31.656636,39.5905178 C28.4142222,39.5905178 25.7763164,36.955669 25.7763164,33.717013 C25.7763164,30.4783569 28.4142222,27.8435082 31.656636,27.8435082 C34.8992459,27.8435082 37.5371517,30.4783569 37.5371517,33.717013 C37.5371517,36.955669 34.8992459,39.5905178 31.656636,39.5905178 Z M31.656636,30.9781338 C30.1447779,30.9781338 28.914579,32.2067111 28.914579,33.717013 C28.914579,35.2273148 30.1445818,36.4558921 31.656636,36.4558921 C33.1686901,36.4558921 34.3988891,35.2273148 34.3988891,33.717013 C34.3988891,32.2067111 33.1686901,30.9781338 31.656636,30.9781338 Z M46.7730587,35.2843258 L42.7333301,35.2843258 C41.8667773,35.2843258 41.1641988,34.5825615 41.1641988,33.717013 C41.1641988,32.8514645 41.8667773,32.1497001 42.7333301,32.1497001 L46.7732548,32.1497001 C47.6398076,32.1497001 48.3423862,32.8514645 48.3423862,33.717013 C48.3423862,34.5825615 47.6398076,35.2843258 46.7730587,35.2843258 Z M20.5803341,35.2843258 L16.5404094,35.2843258 C15.6738566,35.2843258 14.9712781,34.5825615 14.9712781,33.717013 C14.9712781,32.8514645 15.6738566,32.1497001 16.5404094,32.1497001 L20.5803341,32.1497001 C21.4468869,32.1497001 22.1494654,32.8514645 22.1494654,33.717013 C22.1494654,34.5825615 21.4468869,35.2843258 20.5803341,35.2843258 Z M58.3569745,16.4293566 L36.2404608,16.4293566 C35.3739081,16.4293566 34.6713295,15.7275923 34.6713295,14.8620438 C34.6713295,13.9964953 35.3739081,13.294731 36.2404608,13.294731 L58.3569745,13.294731 C59.2235273,13.294731 59.9261059,13.9964953 59.9261059,14.8620438 C59.9261059,15.7275923 59.2235273,16.4293566 58.3569745,16.4293566 Z M54.0810917,9.99612525 L40.4186653,9.99612525 C39.5521125,9.99612525 38.849534,9.29436094 38.849534,8.42881243 C38.849534,7.56326393 39.5521125,6.86149961 40.4186653,6.86149961 L54.0810917,6.86149961 C54.9476445,6.86149961 55.650223,7.56326393 55.650223,8.42881243 C55.650223,9.29436094 54.9476445,9.99612525 54.0810917,9.99612525 Z" id="Shape"></path>
        </g>
    </g>
</svg>