<?xml version="1.0" encoding="utf-8"?>
<!-- Generator: Adobe Illustrator 16.0.4, SVG Export Plug-In . SVG Version: 6.00 Build 0)  -->
<!DOCTYPE svg PUBLIC "-//W3C//DTD SVG 1.1//EN" "http://www.w3.org/Graphics/SVG/1.1/DTD/svg11.dtd">
<svg version="1.1" id="Layer_1" xmlns="http://www.w3.org/2000/svg" xmlns:xlink="http://www.w3.org/1999/xlink" x="0px" y="0px"
	 width="90px" height="62px" viewBox="0 0 90 62" enable-background="new 0 0 90 62" xml:space="preserve">
<path fill="#FFFFFF" d="M69.117,25.718l-3.695-4.662l1.312-5.805l-5.357-2.591l-1.338-5.797l-5.95-0.018L50.367,2.2L45,4.774
	L39.634,2.2l-3.722,4.645l-5.951,0.018l-1.337,5.797l-5.357,2.59l1.311,5.806l-3.694,4.663l3.694,4.662l-1.311,5.805l5.357,2.591
	l1.296,5.796l3.584,0.012V59.8l11.372-6.228L56.249,59.8V44.586l3.747-0.012l1.358-5.798l5.368-2.591l-1.306-5.805L69.117,25.718z
	 M51.551,36.875H38.942V31.93h3.462V19.815h-3.709v-5.439h9.395V31.93h3.461V36.875z"/>
</svg>
