<?xml version="1.0" encoding="UTF-8"?>
<svg width="80px" height="80px" viewBox="0 0 80 80" version="1.1" xmlns="http://www.w3.org/2000/svg" xmlns:xlink="http://www.w3.org/1999/xlink">
    <!-- Generator: Sketch 49 (51002) - http://www.bohemiancoding.com/sketch -->
    <title>Artboard</title>
    <desc>Created with Sketch.</desc>
    <defs></defs>
    <g id="Artboard" stroke="none" stroke-width="1" fill="none" fill-rule="evenodd">
        <g id="ontime" transform="translate(10.000000, 9.000000)" fill="#DADADA" fill-rule="nonzero">
            <path d="M31,62 C13.9065886,62 0,48.0933316 0,31.0001779 C0,13.9070243 13.9065886,0 31,0 C48.0934114,0 62,13.9066684 62,31.0001779 C62,48.0936874 48.0930556,62 31,62 Z M31,5.31436705 C16.837213,5.31436705 5.31433655,16.8373097 5.31433655,31.0001779 C5.31433655,45.1630462 16.837213,56.6859888 31,56.6859888 C45.162787,56.6859888 56.6856635,45.1630462 56.6856635,31.0001779 C56.6856635,16.8373097 45.1624311,5.31436705 31,5.31436705 Z" id="Shape"></path>
            <path d="M44.3299018,34 L30.6700982,34 C29.195054,34 28,32.7987267 28,31.3184133 L28,14.6815867 C28,13.2009141 29.195054,12 30.6700982,12 C32.1451425,12 33.3401965,13.2012733 33.3401965,14.6815867 L33.3401965,28.6368266 L44.3299018,28.6368266 C45.804946,28.6368266 47,29.8380999 47,31.3184133 C47,32.7987267 45.804946,34 44.3299018,34 Z" id="Shape"></path>
        </g>
    </g>
</svg>