<?xml version="1.0" encoding="utf-8"?>
<!-- Generator: Adobe Illustrator 16.0.4, SVG Export Plug-In . SVG Version: 6.00 Build 0)  -->
<!DOCTYPE svg PUBLIC "-//W3C//DTD SVG 1.1//EN" "http://www.w3.org/Graphics/SVG/1.1/DTD/svg11.dtd">
<svg version="1.1" id="Layer_1" xmlns="http://www.w3.org/2000/svg" xmlns:xlink="http://www.w3.org/1999/xlink" x="0px" y="0px"
	 width="150px" height="80px" viewBox="0 0 150 80" enable-background="new 0 0 150 80" xml:space="preserve">
<g>
	<g>
		<path fill="#DADADA" d="M6.34,54.612c0,0,5.009-18.436,25.591-20.483c20.583-2.048,59.986,15.109,78.519-7.523
			c0,0-5.313,22.018-47.5,14.399C20.761,33.39,10.598,45.78,6.34,54.612z"/>
		<path fill="#DADADA" d="M44.958,43.177c0,0,11.527-16.022,32.542-17.693c21.02-1.673,52.088,19.089,63.684,10.555
			c0,0-6.881,7.177-24.059,2.695C99.941,34.245,72.288,21.352,44.958,43.177z"/>
		<path fill="#DADADA" d="M119.977,40.772c0,0,12.645,3.589,21.275-0.876l0.408,5.863C141.659,45.759,127.059,46.171,119.977,40.772
			z"/>
	</g>
</g>
</svg>
