<?xml version="1.0" encoding="utf-8"?>
<!-- Generator: Adobe Illustrator 16.0.4, SVG Export Plug-In . SVG Version: 6.00 Build 0)  -->
<!DOCTYPE svg PUBLIC "-//W3C//DTD SVG 1.1//EN" "http://www.w3.org/Graphics/SVG/1.1/DTD/svg11.dtd">
<svg version="1.1" id="Layer_1" xmlns="http://www.w3.org/2000/svg" xmlns:xlink="http://www.w3.org/1999/xlink" x="0px" y="0px"
	 width="90px" height="62px" viewBox="0 0 90 62" enable-background="new 0 0 90 62" xml:space="preserve">
<g>
	<g>
		<polygon fill="#FFFFFF" points="46.185,56.693 46.189,56.689 46.18,56.689 		"/>
		<path fill="#FFFFFF" d="M45.072,35.346h-0.06l-2.302-2.639c1.112,0.398,2.271,0.643,3.474,0.643s2.359-0.238,3.47-0.641
			l-2.301,2.637h-0.057l5.637,13.633l5.151-6.84l5.713,4.297l3.585-5.385c-3.385-4.297-8.72-8.131-15.004-9.725
			c4.541-3.056,7.673-9.083,7.673-14.509c0-7.659-6.212-13.866-13.867-13.866S32.319,9.158,32.319,16.817
			c0,5.426,3.128,11.452,7.67,14.509c-10.861,2.756-18.911,12.182-18.911,19.17c0,4.131,12.551,6.193,25.102,6.189l-7.028-7.027
			L45.072,35.346z"/>
		<path fill="#FFFFFF" d="M46.189,56.689c3.67-0.004,7.341-0.176,10.693-0.533l-5.803-4.361L46.189,56.689z"/>
		<polygon fill="#FFFFFF" points="72.227,39.449 64.572,50.947 58.711,46.537 55.316,51.045 65.964,59.049 76.922,42.578 		"/>
	</g>
</g>
</svg>
