<?xml version="1.0" encoding="utf-8"?>
<!-- Generator: Adobe Illustrator 16.0.4, SVG Export Plug-In . SVG Version: 6.00 Build 0)  -->
<!DOCTYPE svg PUBLIC "-//W3C//DTD SVG 1.1//EN" "http://www.w3.org/Graphics/SVG/1.1/DTD/svg11.dtd">
<svg version="1.1" id="Layer_1" xmlns="http://www.w3.org/2000/svg" xmlns:xlink="http://www.w3.org/1999/xlink" x="0px" y="0px"
	 width="150px" height="80px" viewBox="0 0 150 80" enable-background="new 0 0 150 80" xml:space="preserve">
<path fill="#DADADA" d="M98.914,67.093c-0.564,0.61-1.576,0.704-2.244,0.211l-10.639-7.867c-0.668-0.493-0.807-1.442-0.307-2.108
	l1.365-1.811c0.5-0.664,1.459-0.807,2.127-0.314l6.824,5.007c0.67,0.492,1.682,0.396,2.246-0.215l9.629-10.077
	c0.566-0.611,1.527-0.646,2.137-0.08l1.66,1.545c0.609,0.568,0.645,1.53,0.078,2.14L98.914,67.093z M98.914,67.093"/>
<path fill="#DADADA" d="M102.239,16.5c0-1.955-1.12-1.951-1.62-1.949c-3.59,0.019-7.248,0.02-11.098-1.09
	c-7.996-2.305-15.104-8.569-17.807-8.569c-2.618,0-7.896,6.265-15.892,8.569c-4.508,1.3-8.833,1.06-12.877,0.871
	c-0.477-0.021-1.233-0.147-1.473,1.499c-0.061,0.416-0.369,20.675-0.369,20.897c0,19.791,24.485,38.38,30.61,38.38
	c1.96,0,5.12-1.573,9.369-4.737c0.566-0.489,0.263-0.813,0.095-1.087c-1.561-2.55-2.465-5.549-2.465-8.76
	c0-9.278,7.521-16.799,16.799-16.799c1.953,0,3.217,0.234,4.541,0.625c0.893,0.379,1.233-0.367,1.326-0.714
	c0.607-2.267,0.947-4.578,0.947-6.908C102.326,36.573,102.239,16.745,102.239,16.5z M98.586,40.968
	c-1.376-0.311-2.801-0.489-4.271-0.489c-10.668,0-19.317,8.627-19.317,19.27c0,3.265,0.82,6.335,2.256,9.029
	c-2.258,1.404-4.028,2.118-5.254,2.118c-5.391,0-26.937-16.358-26.937-33.774c0-0.196,0.271-18.023,0.325-18.39
	c0.211-1.449,0.877-1.338,1.296-1.319c3.56,0.166,7.364,0.377,11.331-0.767C65.053,14.617,69.696,9.104,72,9.104
	c2.379,0,8.634,5.513,15.671,7.541c3.388,0.976,6.606,0.976,9.765,0.959c0.44-0.002,1.427-0.005,1.427,1.715
	c0,0.217,0.076,17.665,0.076,17.802C98.938,38.412,98.808,39.695,98.586,40.968z"/>
</svg>
