<?xml version="1.0" encoding="utf-8"?>
<!-- Generator: Adobe Illustrator 16.0.4, SVG Export Plug-In . SVG Version: 6.00 Build 0)  -->
<!DOCTYPE svg PUBLIC "-//W3C//DTD SVG 1.1//EN" "http://www.w3.org/Graphics/SVG/1.1/DTD/svg11.dtd">
<svg version="1.1" id="Layer_1" xmlns="http://www.w3.org/2000/svg" xmlns:xlink="http://www.w3.org/1999/xlink" x="0px" y="0px"
	 width="150px" height="80px" viewBox="0 0 150 80" enable-background="new 0 0 150 80" xml:space="preserve">
<g id="Layer_x0020_1">
	<path fill="#DADADA" d="M41.873,22.821l11.335,0.161l5.595-1.412c0.12-0.027,0.233-0.04,0.346-0.04v-0.007h11.276l3.496-3.883
		l0.433-0.479h0.64h11.522h0.371l0.346,0.199l9.752,5.629l11.135-0.061v-0.1V21.39h1.441h10.082h1.438v1.439v23.264v1.437h-1.438
		h-10.082h-1.441v-1.437v-1.325h-6.746l-7.266,3.429l2.191,2.298c0.545,0.573,0.52,1.485-0.055,2.03
		c-0.139,0.136-0.293,0.229-0.457,0.294l-23.858,9.91c-0.539,0.227-1.145,0.093-1.544-0.293L49.972,44.753l-8.092-0.146v1.486v1.437
		h-1.438H30.358H28.92v-1.437V22.829V21.39h1.438h10.084h1.438v1.439l0,0L41.873,22.821z M116.758,38.761v2.883h-2.885v-2.883
		H116.758z M36.112,38.761v2.883h-2.883v-2.883H36.112z M108.113,25.786L96.6,25.845h-0.389l-0.332-0.191l-9.736-5.622h-10.51
		l-3.424,3.803l-0.007,0.007l-0.02,0.027l-0.113,0.127l-10.263,11.4c-0.174,0.434-0.134,0.946,0.066,1.418
		c0.18,0.428,0.492,0.832,0.894,1.153c0.405,0.319,0.897,0.561,1.444,0.639c0.932,0.147,2.058-0.132,3.25-1.091l0.087-0.061
		l8.925-6.174l1.012-0.698l0.846,0.897l13.693,14.512l8.426-3.975l0.299-0.141h0.312h7.059v-16.09H108.113z M118.197,24.254h-7.201
		v20.379h7.201V24.254z M69.519,52.704c-0.593-0.525-0.646-1.432-0.127-2.023c0.526-0.592,1.433-0.646,2.025-0.127l7.114,6.301
		l2.631-1.093l-6.116-5.42c-0.593-0.527-0.646-1.433-0.126-2.024c0.526-0.594,1.432-0.647,2.025-0.127l7.158,6.347l2.877-1.192
		l-5.854-5.188c-0.592-0.526-0.646-1.431-0.125-2.024c0.525-0.594,1.432-0.646,2.023-0.127l6.9,6.115l2.838-1.18l-1.406-1.472
		l-0.006,0.007l-0.715-0.753l-0.006-0.006l-0.02-0.021l-0.027-0.027l-13.52-14.324l-7.846,5.428
		c-1.885,1.511-3.809,1.931-5.468,1.67c-1.072-0.165-2.024-0.612-2.791-1.226c-0.771-0.611-1.378-1.412-1.744-2.27
		c-0.547-1.286-0.579-2.737,0.094-4.017l0.086-0.166l0.12-0.127l8.311-9.229h-8.511l-5.581,1.404v-0.007
		c-0.112,0.026-0.239,0.047-0.365,0.039l-11.502-0.159v16.044l8.665,0.152l0.085,0.009l0.047,0.006l0.08,0.014l0.041,0.006
		l0.046,0.015l0.032,0.004l0.175,0.062l0.025,0.013c0.134,0.053,0.261,0.135,0.373,0.233l20.187,17.489l3.943-1.639l-6.067-5.374
		L69.519,52.704z M38.99,24.254h-7.2v20.379h7.2V24.254z"/>
</g>
</svg>
