<?xml version="1.0" encoding="UTF-8"?>
<svg width="80px" height="80px" viewBox="0 0 80 80" version="1.1" xmlns="http://www.w3.org/2000/svg" xmlns:xlink="http://www.w3.org/1999/xlink">
    <!-- Generator: Sketch 49 (51002) - http://www.bohemiancoding.com/sketch -->
    <title>Artboard</title>
    <desc>Created with Sketch.</desc>
    <defs></defs>
    <g id="Artboard" stroke="none" stroke-width="1" fill="none" fill-rule="evenodd">
        <g id="tyres" transform="translate(8.000000, 7.000000)" fill="#DADADA" fill-rule="nonzero">
            <g id="snowflake" transform="translate(44.000000, 0.000000)">
                <path d="M19.068854,15.5605278 L16.6719924,14.1894037 L18.6955143,12.9963509 C19.0208274,12.8411897 19.121509,12.4087218 18.9365034,12.0907732 C18.7481693,11.7651669 18.3416707,11.6964993 18.0330956,11.8745393 L15.3351402,13.4389872 L11.0473292,10.9689301 L15.3351086,8.52432525 L18.0330639,10.0862311 C18.1173244,10.1472725 18.225741,10.182893 18.3462989,10.182893 C18.5749564,10.182893 18.7797749,10.0760628 18.9364717,9.87253923 C19.1171342,9.54947503 19.0207957,9.12212268 18.6954827,8.96696149 L16.6719607,7.7739087 L19.0688223,6.40281598 C19.3812331,6.22474465 19.488667,5.82535521 19.3098113,5.49720685 C19.1389761,5.1817689 18.7162783,5.07239657 18.3943256,5.25809415 L15.985386,6.64192868 L15.9494056,4.25582311 C15.9437629,3.88697004 15.6603266,3.58932667 15.2869869,3.58932667 C14.9137106,3.58932667 14.6217784,3.90984879 14.6245998,4.25582311 L14.6485021,7.40505564 L10.3848787,9.84966048 L10.3848787,4.8892097 L13.0707878,3.37309272 C13.3843398,3.19756348 13.52097,2.7880057 13.3357109,2.46751498 C13.1475987,2.1419087 12.7614519,2.0452154 12.4323031,2.22840229 L10.3848787,3.37312411 L10.3848787,0.66646505 C10.3848787,0.297611983 10.0837217,0 9.71038199,0 C9.33704232,0 9.04796322,0.297611983 9.04796322,0.66646505 L9.04796322,3.39851355 L6.92810271,2.2283709 C6.59790776,2.04775749 6.22200032,2.14950356 6.03674117,2.46748359 C5.84866064,2.79308987 5.96557299,3.19247931 6.2895863,3.37306134 L9.04796322,4.91208844 L9.04796322,9.82420827 L4.68777937,7.33381455 L4.71193533,4.25579173 C4.74816928,3.90984879 4.43493422,3.58929529 4.06159454,3.58929529 L4.03743858,3.58929529 C3.68822318,3.58929529 3.3788873,3.88693866 3.37501981,4.25579173 L3.35086384,6.5706562 L1.00234586,5.23515264 C0.67446505,5.04691298 0.26977334,5.15882739 0.0989063243,5.47172326 C-0.0799492788,5.80241369 0.012553495,6.19163481 0.339927088,6.37987447 L2.71260104,7.73825678 L0.64083056,8.9669301 C0.31573942,9.12212268 0.214233634,9.5545592 0.412109684,9.87253923 C0.539546679,10.0786049 0.72509114,10.182893 0.978158187,10.182893 C1.1104771,10.182893 1.22070059,10.1498146 1.32734189,10.0862311 L4.03740688,8.50141512 L8.38554446,10.9689301 L4.03740688,13.4618659 L1.32734189,11.8745393 C1.00202885,11.6862996 0.582691393,11.7753352 0.412077983,12.0907732 C0.233222381,12.4189216 0.330353463,12.8132268 0.640767158,12.9963509 L2.71256934,14.2122825 L0.339863687,15.5834065 C0.0132826121,15.7716462 -0.092597876,16.1684935 0.0988429228,16.4915577 C0.23274687,16.7154179 0.412109684,16.8248216 0.664954827,16.8248216 C0.72509114,16.8248216 0.845585671,16.7892011 1.00234586,16.7281598 L3.35086384,15.3926562 L3.37501981,17.7075207 C3.3788873,18.0763737 3.68822318,18.3612753 4.03743858,18.3612753 L4.06159454,18.3612753 C4.43493422,18.3612753 4.7147567,18.0534637 4.71193533,17.6820685 L4.68777937,14.6065877 L9.04796322,12.1391041 L9.04796322,17.0257717 L6.2895863,18.5647674 C5.96043747,18.7479229 5.84530037,19.1473124 6.03674117,19.4703766 C6.17061341,19.6967789 6.34997622,19.8061512 6.60278967,19.8061512 C6.7233159,19.8061512 6.83430021,19.7858145 6.92810271,19.732368 L9.04796322,18.5418259 L9.04796322,21.3196948 C9.04796322,21.6885478 9.33704232,21.9759914 9.71038199,21.9759914 C10.0837217,21.9759914 10.3848787,21.6885478 10.3848787,21.3196948 L10.3848787,18.5876149 L12.4323031,19.732368 C12.5260421,19.7857832 12.6370582,19.8061512 12.7455381,19.8061512 C13.0103979,19.8061512 13.2057061,19.699321 13.3357109,19.4703766 C13.5186559,19.1498545 13.4004756,18.7478916 13.0707878,18.5647674 L10.3848787,17.0741028 L10.3848787,12.1136519 L14.6485021,14.5582568 L14.6245998,17.6820685 C14.6214931,18.0534637 14.9136789,18.3612753 15.2870186,18.3612753 C15.6603582,18.3612753 15.9437629,18.0763737 15.9494056,17.7075207 L15.985386,15.3087047 L18.3943256,16.7052497 C18.4873356,16.7586648 18.6111587,16.7764907 18.7437629,16.7764907 C18.9966397,16.7764907 19.1821208,16.6722026 19.3097797,16.4661369 C19.5074656,16.148157 19.3812649,15.7385991 19.068854,15.5605278 Z" id="Shape"></path>
            </g>
            <g id="Group" transform="translate(0.000000, 18.000000)">
                <path d="M33.8439823,39.1260576 C28.5615273,39.1260576 24.2794646,32.3387842 24.2794646,23.9662993 C24.2794646,15.5940277 28.5615273,8.80675436 33.8439823,8.80675436 C39.1262191,8.80675436 43.4085002,15.5940277 43.4085002,23.9662993 C43.4085002,32.3387842 39.1262191,39.1260576 33.8439823,39.1260576 Z M32.7776687,0 C23.2661937,0 15.5555556,10.7451831 15.5555556,24 C15.5555556,37.2548169 23.2661937,48 32.7776687,48 C42.2893619,48 50,37.2548169 50,24 C50,10.7451831 42.2893619,0 32.7776687,0 Z" id="Fill-55"></path>
                <path d="M33.6330676,10.9090909 C32.3342993,10.9090909 31.1043168,11.3703043 30.0008819,12.1899098 C32.1462414,14.3635363 33.6330676,19.0774323 33.6330676,24.5453487 C33.6330676,30.014323 32.1458006,34.7286422 30,36.9018455 C31.1034349,37.7220859 32.3340789,38.1818182 33.6330676,38.1818182 C38.3768454,38.1818182 42.2222222,32.0766658 42.2222222,24.5453487 C42.2222222,17.0142433 38.3768454,10.9090909 33.6330676,10.9090909" id="Fill-56"></path>
                <path d="M27.1543981,47.9972271 C26.219509,47.9865624 26.1310379,47.9827231 24.6492561,47.9206541 C25.1428899,47.8634909 25.2491873,47.846214 25.6963848,47.7734803 C26.3748837,47.8317099 27.2805026,47.8971916 27.9601018,47.9396374 C27.6143601,47.9767508 27.5531786,47.9795236 27.1543981,47.9972271 Z M24.2231861,46.6850338 C23.5794594,46.5274084 22.7229179,46.3100604 22.0827126,46.1392108 C22.2840834,46.0487736 22.5519177,45.9276217 22.7519681,45.8350515 C22.799725,45.8177746 22.8791729,45.7887664 23.0653584,45.794952 C23.3459572,45.8045503 23.6523051,45.8870956 23.8096606,45.963882 C24.0845373,46.1468894 24.3633754,46.3188056 24.646175,46.4787771 C24.5194104,46.540846 24.3508311,46.6244579 24.2231861,46.6850338 Z M23.1740768,47.1423392 C22.2693382,46.9885532 22.183508,46.9714895 20.7534446,46.6871667 C21.2840513,46.4802701 21.4105959,46.426733 21.8817818,46.2273019 C22.5303501,46.3958052 23.3981157,46.6101671 24.0504253,46.7650196 C23.6729924,46.937149 23.6162124,46.9606115 23.1740768,47.1423392 Z M20.7697302,47.9389976 C20.3187914,47.8907928 19.8731346,47.8140064 19.4331997,47.7101315 L21.8338049,47.7101315 C22.2737398,47.8140064 22.7193967,47.8907928 23.1703354,47.9389976 L20.7697302,47.9389976 Z M15.0875497,47.2078209 C15.2627313,47.0568076 15.2856194,47.034625 15.5662182,46.7628866 C17.1498958,46.9972982 17.7203367,47.0693921 19.1367553,47.2434411 C19.7591344,47.051262 19.9732699,46.9751156 20.556035,46.7628866 C21.4797002,46.9476004 21.5950208,46.9672236 23.0050572,47.2078209 C22.4033654,47.4307145 22.2521722,47.4801991 21.6566426,47.6484891 L19.116068,47.6484891 C17.3484057,47.4844649 16.8965867,47.4349804 15.0875497,47.2078209 Z M18.5781987,47.9972271 C17.4778112,47.9852827 17.3081316,47.9801636 15.9889871,47.9396374 C16.0387246,47.893139 16.099466,47.8255244 16.1430413,47.7734803 C17.4852939,47.8560256 17.8290549,47.8709563 18.9686161,47.9206541 C18.8194036,47.9669392 18.8057588,47.9686455 18.5781987,47.9972271 Z M15.488751,47.9198009 C15.1240826,47.902524 14.6374912,47.8803412 14.2728229,47.8605048 C13.9614132,47.8097404 13.6524244,47.7455386 13.3467368,47.667899 L13.3097638,47.6408105 C13.3361731,47.5904728 13.6090691,47.5930323 13.7252701,47.5964451 C14.3674562,47.6154284 15.0050207,47.6932812 15.645226,47.7397796 C15.6007703,47.7958763 15.5391487,47.8688233 15.488751,47.9198009 Z M12.0790904,46.7650196 C12.1547971,46.6039815 12.2542722,46.3889797 12.3284383,46.2273019 C13.6295363,46.4568076 13.8782239,46.4964806 15.0728046,46.6871667 C14.88948,46.8738002 14.8786961,46.8838251 14.5976572,47.1423392 C13.5254397,46.9932456 13.3608218,46.9672236 12.0790904,46.7650196 Z M11.5944799,46.6850338 C11.2405953,46.6236047 10.7685291,46.5425524 10.4150846,46.4789904 C10.1316248,46.3185923 9.85168628,46.1462496 9.57614927,45.9623889 C9.48503719,45.8657661 9.62940802,45.7742624 9.98175207,45.7977249 C10.0400726,45.8015642 10.0400726,45.8015642 11.8453682,46.1392108 C11.7707619,46.303235 11.6706267,46.5216495 11.5944799,46.6850338 Z M8.95465046,43.3815144 C10.2038103,43.7381444 10.470104,43.8098116 11.5905184,44.1116246 C11.3585568,44.4230359 11.3585568,44.4230359 10.9967494,44.8950587 C9.96656672,44.6269463 9.80833101,44.5827941 8.57765772,44.2402417 C8.69055748,43.9825809 8.84131054,43.638962 8.95465046,43.3815144 Z M8.35053776,41.6160683 C8.60054578,41.2619978 8.84989357,40.9075009 9.09924136,40.5532172 C10.5471311,41.08155 11.0717958,41.2624245 12.3753148,41.7077853 C13.1185164,41.2150729 13.361482,41.0499823 14.0892782,40.5532172 C14.9070861,40.9672236 14.9838932,41.0039104 16.2680453,41.6160683 C15.4808281,42.2352648 15.2772564,42.3911837 14.5888541,42.9114113 L12.0482797,42.9114113 C10.4201464,42.3660149 10.0055204,42.2207607 8.35053776,41.6160683 Z M5.61167348,40.5589762 C5.77210996,40.2198364 5.98756582,39.7680768 6.14976292,39.429577 C7.33355971,39.8930679 7.66521648,40.0176324 8.64940299,40.3872734 C8.4009355,40.7413438 8.15202787,41.0952009 7.90334031,41.449058 C6.92575613,41.0794169 6.77610344,41.0201209 5.61167348,40.5589762 Z M5.4452949,36.9965162 C4.53263357,36.5434767 4.41687281,36.4839673 3.30966299,35.9146819 C3.52775978,35.5089939 3.82112307,34.9693565 4.04274109,34.5651617 C5.14686983,35.1150373 5.38301297,35.2287238 6.37710297,35.707572 C6.03048092,36.1836473 5.9974693,36.2295059 5.4452949,36.9965162 Z M1.90908989,35.1739069 C1.76912061,34.773978 1.63619381,34.3674369 1.51096972,33.954497 C1.49776507,33.7134732 1.74975379,33.5432635 2.05015956,33.590615 C2.15249559,33.6066121 2.15249559,33.6066121 3.6340572,34.3593316 C3.41265926,34.7609669 3.11863573,35.2971916 2.90031888,35.7005332 C2.60277411,35.5426946 2.20575433,35.3330253 1.90908989,35.1739069 Z M0.524582436,29.6644863 C0.452176943,29.2146463 0.388134396,28.7601137 0.332894947,28.3008887 C0.360844788,28.0280839 0.635941642,27.8429435 0.933486401,27.8964806 C1.0371429,27.9152506 1.0371429,27.9152506 2.38753833,28.7517952 C2.09725613,29.2027018 1.71256069,29.805048 1.42668004,30.2583008 C1.15598473,30.0804123 0.794397431,29.8436545 0.524582436,29.6644863 Z M0.122500872,22.1756843 C0.19710714,21.8962673 0.50411523,21.7055812 0.792636811,21.7597583 C0.906196792,21.7808745 0.906196792,21.7808745 2.09923683,22.6440811 C1.72928658,23.1225026 1.24027441,23.763882 0.878687107,24.2484891 C0.63880265,24.0565233 0.318369833,23.8009954 0.0789255309,23.6086029 C0.083987313,23.1274084 0.0987325045,22.6496267 0.122500872,22.1756843 Z M0.918741209,16.2919304 C1.03692282,16.0361891 1.37364137,15.8621401 1.6538,15.9116246 C1.76713991,15.9316743 1.76713991,15.9316743 2.82263152,16.7193743 C2.37653447,17.1606826 1.7858465,17.7532172 1.34745214,18.2017775 C1.13815846,18.0238891 0.858880133,17.7869179 0.649806524,17.6090295 C0.731235193,17.1647352 0.821026807,16.7255599 0.918741209,16.2919304 Z M2.60805598,11.02524 C2.76387083,10.8025595 3.12611837,10.6509065 3.39923453,10.6942055 C3.51301459,10.7123356 3.51301459,10.7123356 4.44878404,11.3991468 C3.93666374,11.7875578 3.25750463,12.3101315 2.75220672,12.7070743 C2.56954241,12.549449 2.32613672,12.3395663 2.14325233,12.1819409 C2.2911444,11.7894775 2.44629902,11.4038393 2.60805598,11.02524 Z M5.06191992,6.56971205 C5.24942593,6.38862424 5.63346114,6.26533949 5.90063521,6.30074653 C6.01595581,6.3161038 6.01595581,6.3161038 6.84916917,6.87515109 C6.2809291,7.19552079 5.52672357,7.6280839 4.96464567,7.95847849 C4.80464934,7.82730181 4.59161433,7.65197299 4.43139793,7.5210096 C4.63562983,7.1950942 4.84602391,6.87792393 5.06191992,6.56971205 Z M7.08421192,7.03469605 C7.71561422,7.46427302 7.89695807,7.59011732 8.43592782,7.96338429 C7.65047129,8.37909705 7.55209664,8.43412727 6.34695234,9.10856737 C5.8381332,8.68133665 5.72589369,8.58812655 5.18604362,8.13999289 C5.75230299,7.80298613 6.51201046,7.36146463 7.08421192,7.03469605 Z M8.15246802,3.11837895 C8.3648428,2.98805546 8.76670428,2.89932456 9.02969688,2.92492001 C9.14941902,2.93643796 9.14941902,2.93643796 9.89570178,3.34084607 C9.2816856,3.57803057 8.46541821,3.90074653 7.85646381,4.14944899 C7.71561422,4.05005332 7.52788812,3.91717028 7.3863783,3.8186278 C7.63704656,3.57483115 7.89255652,3.34127266 8.15246802,3.11837895 Z M11.3268657,4.15328831 C10.4824283,4.46939211 10.4027603,4.50159972 9.07459268,5.03718451 C8.63091648,4.70636331 8.5426654,4.64258798 8.05211269,4.28766442 C8.66612888,4.03256309 9.48899859,3.70131532 10.1080765,3.45794525 C10.6793977,3.77703519 10.790977,3.841877 11.3268657,4.15328831 Z M11.7513951,0.864699609 C11.9804958,0.793885532 12.395782,0.745894064 12.6585546,0.75997156 C12.7919214,0.76701031 12.7919214,0.76701031 13.4602968,0.989690722 C12.8108481,1.12833274 11.9466039,1.3207252 11.3004563,1.47301813 C11.1741319,1.41201564 11.0059927,1.3298969 10.8787879,1.27038748 C11.1662091,1.12300035 11.4571516,0.987557768 11.7513951,0.864699609 Z M14.7693177,1.47600427 C13.8780039,1.67415571 13.7937142,1.69527195 12.3867588,2.04848916 C11.9926,1.82922147 11.9336192,1.79850693 11.4743176,1.56046925 C12.1266272,1.40199075 12.9992344,1.20149307 13.6548452,1.05687878 C14.1792899,1.24415215 14.2924098,1.28873089 14.7693177,1.47600427 Z M16.4419066,2.20739424 C18.0064373,1.89811589 18.5328627,1.8049058 19.9609454,1.55748311 C20.1508723,1.76416637 20.169799,1.78592251 20.4829693,2.15023107 C18.7771487,2.52477782 18.3420556,2.62737291 16.6025631,3.06334874 L14.0619887,3.06334874 C13.3658836,2.61926769 13.1840996,2.51006043 12.5656818,2.15023107 C13.4730612,1.91027373 13.557571,1.89043726 14.9709087,1.55748311 C15.6119943,1.82452897 15.849458,1.93309634 16.4419066,2.20739424 Z M17.596433,0.0249555635 C18.0858853,0.059722716 18.1913024,0.0723071453 18.6347586,0.124991113 C17.7097729,0.186420192 17.5924717,0.197724849 16.156246,0.336153573 C15.7988401,0.245289727 15.7356779,0.232918593 15.3252333,0.151866335 C16.005933,0.105367935 16.914633,0.0554568076 17.596433,0.0249555635 Z M19.9021848,0.935087096 C19.482277,1.11766797 19.0694116,1.32584429 18.664469,1.558123 L16.2638639,1.558123 C16.6688064,1.32584429 17.0816718,1.11766797 17.5017997,0.935087096 L19.9021848,0.935087096 Z M20.1841041,0.405687878 C21.7955114,0.270031994 22.3745352,0.234198364 23.8120813,0.150799858 C23.9676762,0.219694276 23.9879233,0.23163882 24.2359507,0.379879132 C22.4880952,0.548382509 21.998863,0.603626023 20.2098531,0.834624956 L17.6692787,0.834624956 C17.0662663,0.605758977 16.914853,0.554568076 16.3184431,0.379879132 C17.2645561,0.275790971 17.3525871,0.268752221 18.8220446,0.150799858 C19.4184544,0.241237114 19.6378718,0.286882332 20.1841041,0.405687878 Z M27.1497766,0.0249555635 C27.1975333,0.0584429435 27.2554137,0.11070032 27.2963481,0.151866335 C26.2063043,0.217774618 25.9813851,0.235904728 24.7324454,0.336153573 C24.5724491,0.239957341 24.557924,0.233558479 24.3151786,0.124991113 C25.662933,0.0648418059 25.9483736,0.057163171 27.1497766,0.0249555635 Z M25.9917288,0.858727337 L25.980945,0.865766086 C25.6873617,0.988197653 25.3972996,1.12321365 25.1107587,1.27017419 C24.7562138,1.33075009 24.2832673,1.41030928 23.9291626,1.47301813 C23.8604984,1.32776396 23.768286,1.13409171 23.6978612,0.989690722 C24.1833521,0.926128689 24.8308201,0.842730181 25.3169712,0.782794169 C25.4166663,0.7721294 25.5837051,0.754212585 25.7503038,0.758265197 C25.9219642,0.76231781 26.0755783,0.790899396 25.9917288,0.858727337 Z M20.9629583,2.04848916 C20.7642283,1.81770352 20.7525642,1.8049058 20.4497376,1.47600427 C21.7605191,1.26526839 22.038477,1.22538215 23.2084089,1.05687878 C23.2805942,1.20746534 23.3752276,1.40902951 23.4456523,1.56046925 C22.3881801,1.75712762 22.1984732,1.79594738 20.9629583,2.04848916 Z M22.3820179,3.12008532 C22.1227667,3.34233914 21.868357,3.57504444 21.618349,3.8182012 C21.2783293,3.91738357 20.8245296,4.04856025 20.4851701,4.14944899 C20.3793128,3.90693211 20.2386833,3.58357625 20.1332662,3.34084607 C20.601371,3.22758621 21.2259509,3.07763953 21.694936,2.9675791 C21.7917701,2.94752932 21.9537471,2.91425524 22.121006,2.92172059 C22.3884001,2.93387842 22.4438597,3.03306079 22.3820179,3.12008532 Z M17.6507921,5.03718451 C17.3970428,4.68460718 17.3145138,4.5719872 17.0075057,4.15328831 C18.2659087,3.81286882 18.5062333,3.75186634 19.66142,3.45794525 C19.7699182,3.7070743 19.9145091,4.03874867 20.0232274,4.28766442 C19.0121914,4.59651617 18.8042182,4.66370423 17.6507921,5.03718451 Z M19.29191,6.57205831 C19.0766742,6.87941699 18.8669403,7.19573409 18.6631486,7.52058301 C18.3420556,7.65175969 17.9135647,7.82559545 17.5933519,7.95847849 C17.4406181,7.63384287 17.2377067,7.20063988 17.0865134,6.87515109 C17.5323904,6.71965873 18.12748,6.51318877 18.5744573,6.36025595 C18.66711,6.33252755 18.8224847,6.28602915 18.9912841,6.29648063 C19.2615392,6.31333096 19.3365857,6.4511198 19.29191,6.57205831 Z M14.9231518,9.10856737 C14.653777,8.72698187 14.3850623,8.34518308 14.1163478,7.96338429 C15.3115886,7.51311767 15.6190368,7.40220405 16.6377754,7.03469605 C16.79271,7.36658372 17.0006832,7.80874511 17.1573784,8.13999289 C16.2029023,8.54376111 16.0572111,8.60817633 14.9231518,9.10856737 Z M16.8384861,11.0280128 C16.6769493,11.4055456 16.5224549,11.7901173 16.375003,12.1815144 C16.076798,12.3389264 15.6784578,12.5481692 15.3811331,12.7070743 C15.1711791,12.3152506 14.8930012,11.7922502 14.6861283,11.3991468 C15.1049358,11.2088873 15.6637126,10.9557057 16.0836203,10.7677924 C16.1714313,10.7334518 16.3184431,10.6758621 16.4892232,10.6888731 C16.7625594,10.7095627 16.8618143,10.8791326 16.8384861,11.0280128 Z M14.8813371,17.6083896 C14.6097614,17.786278 14.2470738,18.0226093 13.9763784,18.2017775 C13.699521,17.758123 13.3326519,17.165375 13.0601959,16.7193743 C13.446872,16.5015997 13.9627337,16.2119446 14.3507303,15.9963028 C14.4325991,15.9568432 14.5697073,15.8907216 14.7429083,15.9054391 C15.0199859,15.9291148 15.1478509,16.1238536 15.1496116,16.2951298 C15.0521172,16.7274795 14.9627658,17.165375 14.8813371,17.6083896 Z M11.734009,19.7259865 C11.2694254,19.16246 11.1668693,19.0355493 10.5009149,18.2098827 C11.5255957,17.6017775 11.7683411,17.4618556 12.6719792,16.9407749 C12.9505973,17.3940277 13.3251692,17.9961607 13.6079688,18.4468539 C12.8053462,18.9849982 12.6207012,19.1127622 11.734009,19.7259865 Z M13.1814586,24.5108425 C12.4791913,25.0773551 12.3152337,25.2106647 11.5280164,25.8522574 C10.958676,25.2618556 10.9065177,25.2051191 10.0334703,24.2572343 C10.9773826,23.5853537 11.1710508,23.4507643 11.986658,22.8851049 C12.341863,23.3750445 12.8200913,24.0251689 13.1814586,24.5108425 Z M13.6603472,27.9879843 C13.7281311,27.9453253 13.8416911,27.8742979 14.0201739,27.8894419 C14.2924098,27.9126911 14.5001629,28.1157483 14.5648657,28.3040881 C14.619885,28.7620334 14.6837076,29.2154995 14.756113,29.6638464 C14.5457189,29.8421614 14.2653402,30.0797725 14.0553863,30.2583008 C13.6224939,29.8097404 13.0496322,29.2076075 12.6248827,28.7517952 C12.935412,28.5225026 13.3495978,28.2168503 13.6603472,27.9879843 Z M15.1357467,33.5842162 C15.4110636,33.6049058 15.6498477,33.7877 15.7433806,33.9576964 C15.8683846,34.3691433 16.0008712,34.7746178 16.1406204,35.173267 C15.9570759,35.3315321 15.7125698,35.5424813 15.5290251,35.7005332 C15.0285689,35.3018841 14.3650353,34.766086 13.8716216,34.3593316 C14.1473787,34.1532883 14.5151281,33.8787771 14.7906652,33.672947 C14.8520668,33.6345539 14.954843,33.5705652 15.1357467,33.5842162 Z M17.1005984,38.5962317 C17.3789964,38.6139353 17.64463,38.7700676 17.7630317,38.9151084 C17.9476767,39.2651261 18.1387039,39.607252 18.3356733,39.9410594 C18.1752368,40.0733025 17.9611014,40.2494845 17.8002248,40.3813011 C17.2418882,40.0479204 16.5011073,39.5982936 15.948933,39.2553146 C16.1949796,39.0804123 16.522895,38.8468539 16.7682814,38.6713118 C16.8241811,38.6388909 16.917714,38.5845005 17.1005984,38.5962317 Z M15.7033264,39.429577 C16.2638639,39.7736224 17.0160887,40.2249555 17.5830083,40.5591895 C17.1030193,40.9499467 17.0200501,41.0162816 16.4795398,41.449058 C15.6722956,41.0651261 15.5963689,41.026733 14.3298229,40.3872734 C14.9715689,39.9436189 15.1119783,39.8448632 15.7033264,39.429577 Z M12.057743,35.707572 C12.5709637,35.3272663 13.0835241,34.946534 13.5960846,34.5651617 C14.0976412,34.9744756 14.7721787,35.5138997 15.2807778,35.9146819 C14.7156188,36.3995024 14.7156188,36.3995024 14.0214943,36.9965162 C13.2818139,36.5257732 13.1893814,36.4639175 12.057743,35.707572 Z M10.4934322,35.9089228 L8.09282702,35.9089228 C7.87957194,35.3485958 7.68084198,34.773978 7.49751743,34.1865624 L9.89812262,34.1865624 C10.0814472,34.773978 10.2801771,35.3485958 10.4934322,35.9089228 Z M5.28948003,30.4927124 C6.54084061,31.2189833 6.96691062,31.4572343 8.12517842,32.1007465 C9.2356894,31.2703875 9.2356894,31.2703875 10.2795169,30.4927124 C10.9399694,31.0583719 11.0029116,31.109776 12.0526812,31.9691433 C11.3229042,32.5960185 10.5942277,33.2239601 9.86577123,33.8523285 L7.32541684,33.8523285 C5.92770474,33.0503377 5.54036837,32.821685 4.13539371,31.9691433 C4.56762589,31.410096 4.56762589,31.410096 5.28948003,30.4927124 Z M4.90214367,30.266406 C4.46837094,30.8132954 4.40058708,30.90032 3.75223881,31.7332385 C2.91506407,31.2138643 2.87302927,31.1872023 1.79971138,30.5008176 C2.08581211,30.0437256 2.47050754,29.4364736 2.76100982,28.9819409 C3.77182571,29.5977249 4.01127001,29.739353 4.90214367,30.266406 Z M4.35283027,24.2572343 C3.82288369,24.8514753 3.75708052,24.9269819 2.95159692,25.8522574 C2.20355356,25.2857448 2.07106691,25.1825098 1.2101238,24.5108425 C1.57259141,24.0200498 2.06248389,23.3701387 2.43309438,22.8851049 C3.38669011,23.570423 3.59136218,23.7158905 4.35283027,24.2572343 Z M3.11863573,16.9407749 C3.95030854,17.5621045 3.95030854,17.5621045 4.82027484,18.2098827 C4.18997293,18.7685033 4.1316524,18.8226804 3.15758946,19.7259865 C2.51320258,19.1865624 2.41350748,19.1023107 1.63663397,18.4468539 C2.07700901,17.9912548 2.6703379,17.3891219 3.11863573,16.9407749 Z M4.33170283,14.0693921 C3.88934709,13.6878067 3.44699134,13.3064344 3.0046356,12.9250622 C3.51301459,12.5210807 4.1961351,11.9889086 4.71177664,11.593459 C5.21641431,11.9662993 5.72017168,12.3402062 6.22370896,12.7143263 C5.50999768,13.2104515 5.44353428,13.2590829 4.33170283,14.0693921 Z M6.42309916,18.440455 C6.52499503,17.7950231 6.64427703,17.1594027 6.78006483,16.5353004 L9.18044996,16.5353004 C9.04466214,17.1594027 8.92560022,17.7950231 8.82370436,18.440455 L6.42309916,18.440455 Z M8.51405533,22.0585851 L5.97370093,22.0585851 C4.8891591,21.1687166 4.58325139,20.9157483 3.45733499,19.9770352 L3.45711491,19.9770352 L3.45733499,19.9770352 C4.07861372,19.389193 4.13803464,19.3354426 5.12926363,18.4387487 C5.31148779,18.5741913 6.27762794,19.291717 7.40046327,20.1180235 C8.59988554,19.3606115 9.00834936,19.1116957 10.1193005,18.4387487 C10.5880655,19.0214717 10.7546642,19.2238891 11.3746224,19.9770352 C10.1162194,20.86925 9.76871707,21.1222183 8.51405533,22.0585851 Z M8.39587372,24.5038037 L5.99526853,24.5038037 C5.99306776,24.3365801 5.99196737,24.16893 5.99196737,24.0008532 C5.99196737,23.4769996 6.00319132,22.9569854 6.02519907,22.4414504 L8.42580426,22.4414504 C8.40379651,22.9569854 8.39257256,23.4769996 8.39257256,24.0008532 C8.39257256,24.16893 8.39367294,24.3365801 8.39587372,24.5038037 Z M8.98436091,30.4944188 L6.5839758,30.4944188 C6.46535403,29.8587984 6.36367823,29.21294 6.27982871,28.5574832 L8.68043391,28.5574832 C8.76428343,29.21294 8.86595922,29.8587984 8.98436091,30.4944188 Z M12.3143533,28.9819409 C12.7470257,29.4415927 13.330231,30.0486313 13.7710462,30.5008176 C13.2895167,30.9109847 12.8088674,31.322005 12.3284383,31.7332385 C11.6675456,31.1931745 11.6268312,31.1584073 10.5827837,30.266406 C11.1596068,29.8376822 11.73687,29.4095983 12.3143533,28.9819409 Z M8.70486251,28.1872023 L6.16450811,28.1872023 C4.90214367,27.2969072 4.55332086,27.0445787 3.29447764,26.1101315 C3.82002268,25.5005332 3.8530343,25.4629932 4.70121292,24.5020975 C5.82712933,25.2889442 6.21270508,25.5495912 7.26181444,26.2543192 C8.40423667,25.4250266 8.67691267,25.2296481 9.69124979,24.5020975 C10.2537678,25.1146819 10.3444398,25.2087452 11.2117651,26.1101315 C10.0594394,27.0575897 9.82285612,27.2540349 8.70486251,28.1872023 Z M8.51471557,14.422396 C9.83099899,13.7394241 10.2770961,13.5171703 11.4884026,12.9178102 C11.873098,13.4414504 11.9703722,13.5717739 12.5104423,14.295272 C11.1021665,15.1083541 10.7452009,15.3203697 9.32878218,16.1846427 L6.7882077,16.1846427 C6.05578983,15.5558479 5.32425228,14.9257732 4.59315488,14.295272 C5.30576577,13.7650196 5.3728894,13.7170281 6.49836566,12.9178102 C6.61346618,13.0031283 8.50305146,14.4134376 8.51471557,14.422396 Z M10.833672,11.2378955 C10.6056717,11.7839317 10.3915363,12.3448987 10.1925863,12.9193032 L7.79198111,12.9193032 C7.99093116,12.3448987 8.20506654,11.7839317 8.4332869,11.2378955 L10.833672,11.2378955 Z M14.9757503,12.9250622 C14.0908188,13.4051902 13.9332433,13.4937077 12.9081223,14.0693921 C12.53201,13.5664415 12.3610098,13.3343761 11.904349,12.7143263 C13.0223426,12.1738357 13.2609066,12.0624956 14.2651201,11.593459 C14.4766146,11.9938144 14.7611748,12.5261998 14.9757503,12.9250622 Z M10.478467,9.40974049 C11.8935652,8.82701741 12.3717936,8.63953075 13.6702507,8.13508709 C14.0036681,8.60988268 14.0501044,8.67536438 14.4926802,9.30117312 C12.9660028,9.99715606 12.5782262,10.1801635 11.0339425,10.9318166 L8.49336804,10.9318166 C7.61635928,10.1822965 7.43391504,10.0268041 6.5751727,9.30117312 C7.36547094,8.84834696 7.46472589,8.79459651 8.68021383,8.13508709 C9.45312596,8.67707074 9.72756258,8.87266263 10.478467,9.40974049 Z M13.2573853,6.74312122 C12.9508174,7.18954852 12.6563538,7.65431924 12.3742144,8.13615357 L9.9736092,8.13615357 C10.2557485,7.65431924 10.5504323,7.18954852 10.8567801,6.74312122 L13.2573853,6.74312122 Z M12.8401184,4.28489158 C13.1909219,3.91695698 13.551849,3.56971205 13.9224594,3.24443654 L16.3228447,3.24443654 C15.9524542,3.56971205 15.5913071,3.91695698 15.2407237,4.28489158 L12.8401184,4.28489158 Z M13.1631922,5.27394241 C14.6564179,4.81663704 15.196268,4.66221117 16.5376402,4.28297192 C16.7577177,4.58371845 16.9753743,4.88595805 17.193031,5.18841095 C15.5666583,5.73828652 15.1526927,5.88482048 13.5012312,6.49356559 L10.9606567,6.49356559 C10.1655168,5.86583719 9.97713044,5.7210096 9.27552342,5.18841095 C10.1300843,4.8324209 10.2101925,4.80149307 11.5478234,4.28297192 C12.2476699,4.70124422 12.509342,4.86420192 13.1631922,5.27394241 Z M12.7945624,40.5542836 L10.3941773,40.5542836 C10.1001538,40.0897262 9.81845458,39.6076786 9.54973997,39.1087807 L11.9503451,39.1087807 C12.2190598,39.6076786 12.500759,40.0897262 12.7945624,40.5542836 Z M11.870237,38.8257376 L9.32966249,38.8257376 C7.79946374,38.1331675 7.4108069,37.9512264 5.86366219,37.2034127 C6.2184271,36.7081407 6.26200244,36.6477782 6.79811119,35.9076431 C8.15907034,36.5483825 8.62013268,36.7561322 9.87237357,37.3164593 C10.7218726,36.6957696 11.3893677,36.2024173 11.7881481,35.9076431 C12.5339907,36.4076075 12.6044154,36.4526128 13.7811698,37.2034127 C12.864327,37.9864202 12.5460949,38.2558123 11.870237,38.8257376 Z M12.3086313,43.1325986 L14.7092366,43.1325986 C15.0492562,43.5214361 15.4000598,43.890224 15.7607667,44.2376822 L13.3601616,44.2376822 C12.9994546,43.890224 12.6488711,43.5214361 12.3086313,43.1325986 Z M19.2617593,46.7635264 L16.8611541,46.7635264 C16.4485089,46.5547103 16.0431261,46.3213651 15.6461063,46.0641309 L18.0464914,46.0641309 C18.4435112,46.3213651 18.848894,46.5547103 19.2617593,46.7635264 Z M17.8937577,45.9167437 L15.3531832,45.9167437 C13.6458221,45.5475293 13.2100687,45.4464273 11.4679353,45.0153573 C11.6836112,44.739353 11.719704,44.6915748 12.0643453,44.2359758 C13.588822,44.6301457 14.1392358,44.7611091 15.5067973,45.0819055 C16.1793541,44.7278351 16.4295822,44.5879132 17.0543822,44.2359758 C17.9311709,44.5448276 18.0132598,44.5714895 19.3854429,45.0153573 C18.7157471,45.4387487 18.5484882,45.5398507 17.8937577,45.9167437 Z M20.5487724,44.2402417 C20.1268839,44.5301102 20.0637217,44.5717028 19.5729489,44.8950587 C18.7104652,44.6169214 18.6290366,44.5883399 17.2711584,44.1116246 C17.8517229,43.775471 18.0037964,43.6841806 18.507994,43.3815144 C19.1173886,43.6453608 19.934096,43.9881265 20.5487724,44.2402417 Z M19.4648909,42.7900462 C19.5161689,42.7644507 19.6019991,42.7215784 19.7866441,42.7309634 C20.0668028,42.7450408 20.3548842,42.8676857 20.4946334,42.9815855 C20.7290159,43.2554568 20.9686803,43.5197299 21.2134064,43.773978 C21.0718967,43.8742268 20.8837303,44.0083896 20.7415603,44.1079985 C20.1354669,43.8548169 19.3299833,43.5109847 18.7287317,43.2464984 C18.9499096,43.1099893 19.2445933,42.9276217 19.4648909,42.7900462 Z M28.1174572,47.9198009 C27.446441,47.8728759 26.5522661,47.8020619 25.8825703,47.7397796 C26.0685358,47.7030928 26.3163431,47.6529684 26.5016483,47.6128689 C26.5465441,47.6051902 26.6218107,47.5923925 26.8084363,47.5951653 C27.077371,47.5992179 27.3879003,47.6335585 27.5655029,47.6661927 C24.4001284,46.3819409 14.3104561,40.9298969 14.3104561,23.6079631 C14.0694712,23.7999289 13.747718,24.0556701 13.5073933,24.2484891 C13.1537289,23.7687878 12.6849638,23.1271952 12.3368012,22.6440811 C12.6862842,22.4058301 13.1528486,22.0886597 13.5038721,21.8523285 C13.5791387,21.8092428 13.7048029,21.7369357 13.8806448,21.7529328 C14.1614637,21.7785283 14.3227804,21.9918237 14.3538113,22.1793104 C14.330043,22.6517596 14.315738,23.1282616 14.3104561,23.6079631 C14.3104561,23.6079631 14.9022444,2.10287949 30,0 L29.960166,0.00277284038 C29.642154,0.0106647707 29.3261228,0.0326341983 29.0127324,0.0684678279 C28.6474038,0.0848915748 28.1601522,0.105367935 27.7950437,0.124137931 C27.7552097,0.0880910061 27.6986498,0.0426590829 27.6522134,0.0149306789 C28.1240596,0.00917170281 28.7409367,0.00255954497 29.2286284,0 C26.557548,0 17.8024256,0 16.8226406,0 C17.056803,0.00149306789 17.2264828,0.00767863491 17.414649,0.0149306789 C16.7398914,0.0405261287 15.8402147,0.0831852116 15.1663374,0.124137931 C15.0981134,0.114113047 15.0184453,0.102168503 14.9392174,0.090650551 C13.4972698,0.238890864 12.1224458,0.588908639 10.7533437,1.26292214 C5.56963868,3.81457519 2.7544075,9.27323143 1.23103116,14.4659083 C0.774150302,16.0231781 0.53294538,17.360327 0.332894947,18.967508 C-0.567442039,26.1969428 0.262910308,33.6251689 4.00202676,39.7578386 C3.84137019,39.4803412 3.68225418,39.2009243 3.53018063,38.9125489 C3.48088328,38.7033061 3.70316153,38.5608248 4.01589164,38.6015642 C4.11448636,38.6143619 4.11448636,38.6143619 5.71158866,39.2553146 C5.54873131,39.592748 5.33239514,40.0430146 5.17151851,40.3813011 C4.85614748,40.2516175 4.4375601,40.0803412 4.11976821,39.9478848 C4.43667979,40.4572343 4.77163772,40.9586918 5.12992387,41.449058 C5.4941521,41.9473161 5.86608304,42.4498401 6.2516588,42.9448987 C6.21754679,42.8024173 6.41275551,42.7060078 6.70259757,42.735016 C6.7901884,42.7437611 6.7901884,42.7437611 8.49138736,43.2464984 C8.37760729,43.5047991 8.22619398,43.8494845 8.11285408,44.1079985 C7.7734946,44.0081763 7.32079521,43.8759332 6.98209597,43.7744045 C6.7813853,43.5658017 6.58617658,43.345894 6.39228831,43.1240668 C7.05054007,43.9584785 7.75126677,44.7679346 8.53144146,45.4933523 C9.77487923,46.6500533 11.4939044,48 13.3097638,48 C13.3099839,48 16.0952844,48 19.280686,48 L19.0812958,47.9997867 C19.3086359,47.98123 19.3222807,47.9801636 19.4745742,47.9389976 C20.7664291,47.9767508 21.4156577,47.9957341 23.0437909,48 L23.0481924,48 C23.0889068,48 23.129181,48 23.1696752,48 C23.6331584,47.9936012 23.8660003,47.9904017 24.4646111,47.9389976 C25.9527751,47.9918948 26.0419064,47.9950942 26.9985832,47.9997867 L26.9374018,48 C27.901121,48 28.5039132,48 28.5039132,48 C28.5039132,48 28.3978359,47.9709919 28.207689,47.9063633 C28.1773183,47.9110558 28.1445268,47.9161749 28.1174572,47.9198009 Z" id="Fill-57"></path>
            </g>
        </g>
    </g>
</svg>