<?xml version="1.0" encoding="UTF-8"?>
<svg width="80px" height="80px" viewBox="0 0 80 80" version="1.1" xmlns="http://www.w3.org/2000/svg" xmlns:xlink="http://www.w3.org/1999/xlink">
    <!-- Generator: Sketch 49 (51002) - http://www.bohemiancoding.com/sketch -->
    <title>Artboard</title>
    <desc>Created with Sketch.</desc>
    <defs></defs>
    <g id="Artboard" stroke="none" stroke-width="1" fill="none" fill-rule="evenodd">
        <g id="videocamera" transform="translate(4.000000, 21.000000)" fill="#DADADA" fill-rule="nonzero">
            <path d="M11.974,38.989 L42.965,38.989 C49.567,38.989 54.939,33.617 54.939,27.015 L54.939,24.398 L68.235,37.695 C68.639,38.099 69.18,38.314 69.73,38.314 C70.002,38.314 70.278,38.261 70.539,38.154 C71.329,37.827 71.844,37.056 71.844,36.201 L71.844,2.334 C71.844,1.479 71.329,0.708 70.539,0.381 C69.751,0.054 68.841,0.234 68.235,0.839 L54.929,14.147 C54.826,7.633 49.502,2.363 42.965,2.363 L11.974,2.363 C5.371,2.363 0,7.734 0,14.337 L0,27.016 C0,33.617 5.371,38.989 11.974,38.989 Z M67.617,7.436 L67.617,31.101 L55.785,19.268 L67.617,7.436 Z M4.226,14.337 C4.226,10.065 7.703,6.589 11.974,6.589 L42.965,6.589 C47.236,6.589 50.713,10.064 50.713,14.337 L50.713,19.12 L50.713,19.417 L50.713,27.016 C50.713,31.288 47.236,34.764 42.965,34.764 L11.974,34.764 C7.703,34.764 4.226,31.288 4.226,27.016 L4.226,14.337 Z" id="Shape"></path>
        </g>
    </g>
</svg>