<?xml version="1.0" encoding="UTF-8"?>
<svg width="80px" height="80px" viewBox="0 0 80 80" version="1.1" xmlns="http://www.w3.org/2000/svg" xmlns:xlink="http://www.w3.org/1999/xlink">
    <!-- Generator: Sketch 49 (51002) - http://www.bohemiancoding.com/sketch -->
    <title>Artboard</title>
    <desc>Created with Sketch.</desc>
    <defs></defs>
    <g id="Artboard" stroke="none" stroke-width="1" fill="none" fill-rule="evenodd">
        <g id="water" transform="translate(10.000000, 9.000000)" fill="#DADADA" fill-rule="nonzero">
            <path d="M42.0660037,25.9784483 L35.802198,25.5387931 L33.4382457,19.9137931 C32.9440862,18.75 31.7954993,18 30.5,18 C29.2045007,18 28.0559138,18.75 27.5617543,19.9137931 L25.197802,25.5387931 L18.9339963,25.9784483 C17.6384971,26.0689655 16.5566884,26.8965517 16.1560185,28.0862069 C15.7553486,29.2758621 16.1426629,30.5689655 17.1309819,31.3836207 L21.9256647,35.3017241 L20.4298305,41.1982759 C20.1894286,42.1163793 20.4031192,43.0732759 21.004124,43.8103448 C21.6051288,44.5603448 22.5400252,45 23.5016329,45 C24.089282,45 24.6635755,44.8448276 25.1710907,44.5344828 L30.5,41.3275862 L35.8289093,44.5344828 C36.3364245,44.8448276 36.910718,45 37.4983671,45 C38.4599748,45 39.3948712,44.5603448 39.995876,43.8103448 C40.5968808,43.0732759 40.8105714,42.1163793 40.5701695,41.1982759 L39.0743353,35.3017241 L43.8690181,31.3836207 C44.8573371,30.5818966 45.2446514,29.2887931 44.8439815,28.0862069 C44.4433116,26.8965517 43.3481473,26.0689655 42.0660037,25.9784483 Z M36.1895122,33.5172414 C35.7087084,33.9051724 35.5083734,34.5258621 35.6552857,35.1077586 L37.3380992,41.7155172 L31.3681181,38.1206897 C30.8338916,37.7974138 30.1661084,37.7974138 29.6452376,38.1206897 L23.6619008,41.7413793 L25.35807,35.0948276 C25.5049822,34.512931 25.3046473,33.8922414 24.8238435,33.5043103 L19.4415115,29.1077586 L26.4532343,28.6163793 C27.0675947,28.5775862 27.6151769,28.1896552 27.8555788,27.6336207 L30.5,21.3362069 L33.1577768,27.6465517 C33.3981788,28.2025862 33.9324053,28.5905172 34.5601214,28.6293103 L41.5718442,29.1206897 L36.1895122,33.5172414 Z" id="Shape"></path>
            <path d="M57.9376436,31.9897667 C57.4235308,31.279165 57.4109914,30.3020876 57.9251043,29.5787966 L58.9909479,28.0433893 C59.8310835,26.8379042 60.1320276,25.3151862 59.7934655,23.8686042 C59.4549034,22.4220221 58.5269924,21.1911584 57.2354407,20.493246 L55.6053268,19.6049939 C54.8278879,19.1862464 54.4140898,18.3233729 54.5520225,17.4478101 L54.8655059,15.5951699 C55.1037534,14.1358985 54.7150339,12.6385591 53.7996623,11.4838314 C52.8717513,10.3291036 51.5049635,9.63119116 50.0504004,9.56774458 L48.1820391,9.50429799 C47.3042855,9.46623005 46.5519253,8.86983217 46.3136779,8.01964797 L45.799565,6.21776504 C45.1725982,4.0225133 43.1537649,2.48710602 40.8841448,2.48710602 C40.1944813,2.48710602 39.5048177,2.6266885 38.8653115,2.90585346 L37.1599616,3.64183381 C36.3699834,3.98444535 35.4044544,3.76872698 34.8401842,3.12157184 L33.5987898,1.72574703 C32.6332608,0.634465821 31.2413944,0 29.7993706,0 C28.3197288,0 26.915323,0.647155137 25.9372547,1.7765043 L24.7334783,3.21039705 C24.1692081,3.87024151 23.2162185,4.0986492 22.4137009,3.76872698 L20.6958117,3.05812526 C20.0688448,2.80433893 19.4167993,2.66475645 18.7522144,2.66475645 C16.4575157,2.66475645 14.426143,4.22554237 13.8242548,6.47155137 L13.3352207,8.2734343 C13.1095126,9.1236185 12.3571524,9.73270569 11.4919381,9.78346296 L9.6486555,9.8976668 C8.18155303,9.98649202 6.8273046,10.6970937 5.92447231,11.8645108 C5.02164002,13.031928 4.65799924,14.5292673 4.92132532,15.9885387 L5.25988743,17.8284896 C5.42289882,18.7040524 5.00910068,19.5796152 4.24420111,20.011052 L2.62662659,20.9246828 C1.34761418,21.6479738 0.432242556,22.8915268 0.118759123,24.3381089 C-0.19472431,25.784691 0.118759123,27.3074089 0.983973399,28.5002047 L2.07489575,30.0102333 C2.58900858,30.720835 2.60154792,31.6979124 2.08743509,32.4212034 L1.02159141,33.9566107 C0.18145581,35.1620958 -0.119488286,36.6848138 0.219073822,38.1313958 C0.55763593,39.5779779 1.48554689,40.7961523 2.77709864,41.506754 L4.40721249,42.3950061 C5.18465141,42.8137536 5.59844954,43.6766271 5.46051683,44.5521899 L5.1470334,46.4048301 C4.90878599,47.8641015 5.29750544,49.3614409 6.21287707,50.5161686 C7.14078803,51.6708964 8.5075758,52.3688088 9.96213893,52.4322554 L11.8179609,52.5083913 C12.6957145,52.5464593 13.4480747,53.1428571 13.6863221,53.9930413 L14.200435,55.7949243 C14.8274018,57.990176 16.8462351,59.5255833 19.1158552,59.5255833 C19.8055187,59.5255833 20.4951823,59.3860008 21.1346885,59.1068359 L22.8400384,58.3708555 C23.6300166,58.028244 24.5955456,58.2439623 25.1598158,58.8911175 L26.4012102,60.2869423 C27.3667392,61.3782235 28.7586056,62 30.2006294,62 C31.6802712,62 33.084677,61.3528449 34.0627453,60.2234957 L35.2665217,58.7896029 C35.8307919,58.1297585 36.7837815,57.9013508 37.5862991,58.231273 L39.3041883,58.9418747 C39.9311552,59.1956611 40.5832007,59.3352436 41.2477856,59.3352436 C43.5424843,59.3352436 45.573857,57.7744576 46.1757452,55.5284486 L46.6647793,53.7265657 C46.8904874,52.8763815 47.6428476,52.2672943 48.5080619,52.216537 L50.3513445,52.1150225 C51.818447,52.0261973 53.1726954,51.3155956 54.0755277,50.1481785 C54.97836,48.9807614 55.3420008,47.483422 55.0786747,46.0241506 L54.7401126,44.1841998 C54.5771012,43.3086369 54.9908993,42.4330741 55.7557989,42.0143266 L57.3733734,41.1006959 C58.6523858,40.3774048 59.5677574,39.1338518 59.8812409,37.6872698 C60.1947243,36.2406877 59.8812409,34.7179697 59.0160266,33.525174 L57.9376436,31.9897667 Z M56.8968786,37.0020467 C56.7714852,37.5857552 56.4078444,38.0679492 55.8937316,38.3598035 L54.2761571,39.2734343 C52.3576385,40.3520262 51.3294128,42.5472779 51.7306716,44.7298404 L52.0692337,46.5697912 C52.1820878,47.1534998 52.0316157,47.7498977 51.6679749,48.2194024 C51.3043341,48.6889071 50.777682,48.968072 50.1883331,49.00614 L48.3450505,49.1076545 C46.1506665,49.2345477 44.2948446,50.7572657 43.7054957,52.9017601 L43.2164616,54.7036431 C42.9782141,55.6045845 42.1631572,56.226361 41.2477856,56.226361 C40.9844595,56.226361 40.7211334,56.1756038 40.4703467,56.0740892 L38.7524575,55.3634875 C38.1254906,55.1097012 37.4734451,54.9701187 36.8088602,54.9701187 C35.3292184,54.9701187 33.9248126,55.6172738 32.9467443,56.746623 L31.7304286,58.1551371 C31.3417091,58.6119525 30.7899783,58.8657388 30.1880901,58.8657388 C29.5987412,58.8657388 29.0595497,58.6246418 28.6708302,58.1805158 L27.4294358,56.784691 C26.4639069,55.6934097 25.0720404,55.0589439 23.6174773,55.0589439 C22.9152744,55.0589439 22.2381502,55.1985264 21.598644,55.4776914 L19.8932941,56.2136717 C19.629968,56.3278756 19.3666419,56.3786328 19.0907765,56.3786328 C18.1879442,56.3786328 17.3854266,55.7695456 17.1346399,54.8939828 L16.6205271,53.0920999 C16.0060995,50.9602947 14.1251989,49.4629554 11.9308149,49.3614409 L10.074993,49.285305 C9.48564411,49.2599263 8.94645261,48.9934507 8.58281183,48.523946 C8.20663171,48.0544413 8.05615966,47.4707327 8.15647436,46.8870242 L8.45741845,45.034384 C8.82105924,42.8391322 7.7677549,40.6692591 5.82415761,39.6160458 L4.19404376,38.7277937 C3.66739159,38.4486287 3.30375081,37.9664347 3.17835743,37.3827262 C3.04042472,36.7990176 3.15327876,36.2026197 3.49184087,35.7204257 L4.55768454,34.1850184 C5.82415761,32.3704462 5.81161827,29.9467867 4.50752719,28.1449038 L3.41660484,26.6348752 C3.0655034,26.1526811 2.94011002,25.5562833 3.07804273,24.9725747 C3.20343611,24.3888661 3.56707689,23.9066721 4.08118972,23.6148178 L5.69876424,22.7011871 C7.61728285,21.6225952 8.64550851,19.4273434 8.24424972,17.244781 L7.93076628,15.4302088 C7.81791225,14.8338109 7.9683843,14.2501023 8.33202508,13.7805976 C8.69566586,13.3110929 9.22231803,13.031928 9.81166689,12.99386 L11.6549495,12.8796562 C13.8493335,12.752763 15.7051554,11.230045 16.2945043,9.08555055 L16.7835384,7.28366762 C17.0217859,6.38272616 17.8368428,5.76094965 18.7522144,5.76094965 C19.0155405,5.76094965 19.2788666,5.81170692 19.5296533,5.91322145 L21.2475425,6.62382317 C21.8745094,6.8776095 22.5265549,7.01719198 23.1911398,7.01719198 C24.6707816,7.01719198 26.0751874,6.37003684 27.0532557,5.24068768 L28.2695714,3.83217356 C28.6582909,3.37535817 29.2100217,3.12157184 29.8119099,3.12157184 C30.4012588,3.12157184 30.9404503,3.36266885 31.3291698,3.80679492 L32.5705642,5.20261973 C33.5360931,6.29390094 34.9279596,6.92836676 36.3825227,6.92836676 C37.0847256,6.92836676 37.7618498,6.78878428 38.401356,6.50961932 L40.1067059,5.77363897 C40.370032,5.65943512 40.6333581,5.60867786 40.9092235,5.60867786 C41.8120558,5.60867786 42.6145734,6.21776504 42.8653601,7.09332788 L43.3794729,8.89521081 C43.9939005,11.027016 45.8748011,12.5243553 48.0691851,12.6258698 L49.925007,12.7020057 C50.5143559,12.7273844 51.0535474,12.99386 51.4171882,13.4633647 C51.7933683,13.9328694 51.9438403,14.516578 51.8435256,15.1002865 L51.5425815,16.9529267 C51.1789408,19.1481785 52.2322451,21.3180516 54.1758424,22.3712648 L55.8059562,23.259517 C56.3326084,23.5386819 56.6962492,24.020876 56.8341819,24.6045845 C56.9721146,25.1882931 56.8592606,25.784691 56.5206985,26.266885 L55.4548548,27.8022923 C54.1883817,29.6168645 54.2009211,32.0405239 55.5050121,33.8424069 L56.5959345,35.3524355 C56.8968786,35.8219402 57.022272,36.4056488 56.8968786,37.0020467 Z" id="Shape"></path>
        </g>
    </g>
</svg>