<?xml version="1.0" encoding="utf-8"?>
<!-- Generator: Adobe Illustrator 16.0.4, SVG Export Plug-In . SVG Version: 6.00 Build 0)  -->
<!DOCTYPE svg PUBLIC "-//W3C//DTD SVG 1.1//EN" "http://www.w3.org/Graphics/SVG/1.1/DTD/svg11.dtd">
<svg version="1.1" id="Layer_1" xmlns="http://www.w3.org/2000/svg" xmlns:xlink="http://www.w3.org/1999/xlink" x="0px" y="0px"
	 width="150px" height="80px" viewBox="0 0 150 80" enable-background="new 0 0 150 80" xml:space="preserve">
<g>
	<path fill="#DBDADA" d="M57.915,46.799c-4.25,0-8.5,1.75-11.25,5c-2.5,3-7-1-4.5-4c4-4.5,9.75-7.001,15.75-7.001
		c5.999,0,11.75,2.501,15.75,7.001c2.5,3-2,7-4.5,4C66.414,48.549,62.165,46.799,57.915,46.799z M57.915,67.798
		c-3.25,0-6-2.749-6-5.999s2.75-6,6-6c3.25,0,5.999,2.75,5.999,6S61.165,67.798,57.915,67.798z M57.915,31.798
		c-8,0-15.25,2.75-21,8.5c-2.5,2.5-7.25-1.25-4.25-4.25c6.75-6.75,15.75-10.25,25.25-10.25c9.5,0,18.5,3.5,25.25,10.25
		c3,3-1.75,6.75-4.25,4.25C73.164,34.549,65.914,31.798,57.915,31.798z M57.915,16.799c-11.5,0-22.25,4.25-30.5,12
		c-3,2.75-7.25-1.5-4.25-4.25c9.75-9,21.75-13.75,34.75-13.75c13,0,25,4.75,34.75,13.75c3,2.75-1.25,7-4.25,4.25
		C80.165,21.049,69.414,16.799,57.915,16.799z"/>
	<g>
		<path fill="#DBDAD9" d="M120.214,14.01c0-0.51-0.322-0.809-0.639-0.809h-11.32c-0.318,0-0.641,0.299-0.641,0.809v9.991h12.6V14.01
			z M111.261,20.401h-1.801v-5.4h1.801V20.401z M114.86,20.401h-1.801v-5.4h1.801V20.401z M118.46,20.401h-1.799v-5.4h1.799V20.401z
			"/>
		<path fill="#DBDAD9" d="M123.86,25.974c0-0.144-0.041-0.168-0.037-0.172h-19.84c0.059,0-0.014-0.01-0.014,0.172v21.256
			c0,0.189,0.072,0.176,0.014,0.176h5.432v-0.004h9v0.004h5.432c-0.061,0,0.014,0.007,0.014-0.176V25.974z M120.877,44.004
			c0,0.128-0.051,0.123-0.01,0.123h-3.803v-0.003h-6.3v0.003h-3.802c0.042,0-0.01,0.01-0.01-0.123V29.125
			c0-0.127,0.051-0.12,0.01-0.12h13.904c-0.041,0,0.01-0.014,0.01,0.12V44.004z"/>
		<path fill="#DBDAD9" d="M123.823,25.802h0.023C123.831,25.802,123.825,25.801,123.823,25.802z"/>
		<path fill="#DBDAD9" d="M111.214,56.307c0,0.07,0.01,0.088,0.008,0.095h5.383c0-0.007,0.01-0.024,0.01-0.095v-7.105h-5.4V56.307z"
			/>
		<rect x="112.97" y="58.201" fill="#DBDAD9" width="1.891" height="9"/>
	</g>
</g>
</svg>
