<?xml version="1.0" standalone="no"?>
<!DOCTYPE svg PUBLIC "-//W3C//DTD SVG 20010904//EN"
 "http://www.w3.org/TR/2001/REC-SVG-20010904/DTD/svg10.dtd">
<svg version="1.0" xmlns="http://www.w3.org/2000/svg"
 width="260.000000pt" height="260.000000pt" viewBox="0 0 260.000000 260.000000"
 preserveAspectRatio="xMidYMid meet">
<metadata>
Created by potrace 1.11, written by Peter Selinger 2001-2013
</metadata>
<g transform="translate(0.000000,260.000000) scale(0.100000,-0.100000)"
fill="#000000" stroke="none">
<path d="M2 2268 l3 -333 75 -7 c41 -4 144 -17 227 -28 l153 -21 38 25 c84 52
251 130 361 166 382 128 696 124 1238 -15 l176 -45 54 41 c29 23 76 66 103 96
28 30 50 51 50 46 0 -17 -61 -104 -106 -153 -38 -41 -42 -49 -27 -54 60 -18
238 -66 245 -66 4 0 8 153 8 340 l0 340 -1300 0 -1300 0 2 -332z"/>
<path d="M1191 2049 c-180 -19 -380 -72 -559 -147 l-87 -36 50 -8 c742 -111
1168 -95 1508 56 31 14 57 30 57 34 0 18 -333 82 -529 102 -120 12 -320 11
-440 -1z"/>
<path d="M2178 1886 c-120 -77 -315 -142 -510 -173 -84 -13 -172 -17 -343 -17
-247 0 -315 6 -640 59 -115 19 -224 36 -241 37 -34 2 -84 -26 -218 -124 -44
-32 -82 -55 -85 -52 -7 7 103 110 168 157 l43 32 -63 6 c-35 4 -115 10 -176
14 l-113 7 0 -916 0 -916 1300 0 1300 0 -2 917 -3 917 -165 48 c-91 26 -169
47 -175 47 -5 -1 -40 -20 -77 -43z m-1243 -564 c175 -48 303 -139 361 -259 26
-53 29 -68 29 -163 0 -98 -2 -109 -30 -158 -65 -119 -208 -213 -387 -254 -85
-20 -122 -22 -418 -22 l-325 -1 0 30 c0 29 2 30 56 35 104 9 99 -9 99 374 0
182 -4 336 -8 342 -13 19 -50 34 -86 34 -19 0 -41 3 -50 6 -16 6 -22 45 -8 58
4 4 160 6 347 4 310 -4 347 -7 420 -26z m853 16 c28 -28 -5 -58 -63 -58 -27 0
-51 -7 -66 -19 l-24 -19 0 -274 c0 -150 3 -285 7 -300 11 -38 54 -86 102 -111
36 -20 56 -22 176 -22 125 0 139 2 191 26 33 16 66 40 80 60 l24 34 0 291 c0
342 2 334 -94 334 -67 0 -84 9 -79 41 l3 24 233 3 c209 2 233 1 239 -14 12
-33 -11 -49 -80 -54 -36 -3 -72 -11 -79 -18 -10 -10 -14 -85 -18 -305 -6 -327
-8 -335 -81 -401 -86 -79 -212 -118 -374 -118 -202 0 -348 61 -413 171 l-27
46 -3 280 c-1 154 -4 289 -7 301 -6 25 -44 44 -90 44 -18 0 -40 3 -49 6 -16 6
-22 45 -9 57 12 13 488 8 501 -5z"/>
<path d="M520 932 c0 -413 -7 -386 101 -403 147 -24 314 24 394 113 61 68 80
129 80 258 0 92 -3 112 -26 160 -40 84 -90 135 -172 175 -82 39 -163 55 -289
55 l-88 0 0 -358z"/>
</g>
</svg>
