<?xml version="1.0" encoding="utf-8"?>
<!-- Generator: Adobe Illustrator 16.0.4, SVG Export Plug-In . SVG Version: 6.00 Build 0)  -->
<!DOCTYPE svg PUBLIC "-//W3C//DTD SVG 1.1//EN" "http://www.w3.org/Graphics/SVG/1.1/DTD/svg11.dtd">
<svg version="1.1" id="Layer_1" xmlns="http://www.w3.org/2000/svg" xmlns:xlink="http://www.w3.org/1999/xlink" x="0px" y="0px"
	 width="64px" height="64px" viewBox="0 0 64 64" enable-background="new 0 0 64 64" xml:space="preserve">
<g>
	<g>
		<path fill="#FFFFFF" d="M9.771,8.56c0.136-0.912,0.621-1.6,1.456-2.064l9.784-5.393c0.453-0.285,0.995-0.481,1.625-0.591
			c0.631-0.11,1.225-0.127,1.781-0.05c0.038,0.011,0.156,0.033,0.353,0.068c0.196,0.036,0.448,0.097,0.754,0.185
			c0.727,0.207,1.866,0.667,3.42,1.378c1.554,0.712,3.366,1.891,5.439,3.535c2.073,1.646,4.322,3.868,6.748,6.668
			c2.426,2.799,4.834,6.38,7.228,10.741c1.924,3.4,3.421,6.556,4.492,9.466c1.072,2.909,1.852,5.538,2.338,7.889
			c0.487,2.351,0.762,4.434,0.822,6.249s0.016,3.353-0.138,4.61c-0.152,1.259-0.346,2.227-0.58,2.903
			c-0.233,0.677-0.362,1.055-0.384,1.131c-0.229,0.513-0.557,1.01-0.982,1.486c-0.425,0.479-0.879,0.835-1.358,1.07l-9.801,5.45
			c-0.688,0.383-1.376,0.476-2.064,0.279c-0.496-0.142-0.895-0.41-1.194-0.806c-0.301-0.396-0.525-0.842-0.673-1.339L36.02,48.038
			c-0.17-0.71-0.073-1.406,0.286-2.088c0.36-0.684,0.859-1.202,1.498-1.558l3.61-2.008c0.1-0.055,0.201-0.16,0.308-0.315
			c0.106-0.156,0.176-0.292,0.208-0.405c0.077-0.847-0.006-1.863-0.247-3.047c-0.196-1.049-0.585-2.367-1.164-3.96
			c-0.58-1.591-1.504-3.497-2.771-5.718c-1.218-2.249-2.356-4.052-3.417-5.408s-1.974-2.393-2.741-3.107
			c-0.768-0.714-1.376-1.188-1.827-1.419l-0.676-0.348c-0.076-0.022-0.209-0.029-0.396-0.021c-0.189,0.009-0.332,0.04-0.431,0.095
			l-4.217,2.394c-0.862,0.415-1.752,0.491-2.669,0.23c-0.65-0.186-1.134-0.448-1.45-0.786l-0.058-0.017l-9.201-9.692
			C10.003,10.134,9.704,9.368,9.771,8.56z"/>
	</g>
</g>
</svg>
