<svg xmlns="http://www.w3.org/2000/svg" width="200px" height="80px" viewBox="0 0 200 80">
<g>
	<g>
		<g>
			<linearGradient id="SVGID_1_" gradientUnits="userSpaceOnUse" x1="4.1489" y1="30.8896" x2="151.6387" y2="30.8896">
				<stop  offset="0" style="stop-color:#C4992F"/>
				<stop  offset="0.0123" style="stop-color:#C4992F"/>
				<stop  offset="0.1036" style="stop-color:#D2B14A"/>
				<stop  offset="0.2542" style="stop-color:#E7D472"/>
				<stop  offset="0.3743" style="stop-color:#F4EA8A"/>
				<stop  offset="0.4479" style="stop-color:#F9F293"/>
				<stop  offset="0.529" style="stop-color:#F6EE90"/>
				<stop  offset="0.6163" style="stop-color:#ECE187"/>
				<stop  offset="0.7065" style="stop-color:#DCCB77"/>
				<stop  offset="0.7987" style="stop-color:#C6AD62"/>
				<stop  offset="0.8925" style="stop-color:#A98647"/>
				<stop  offset="0.9862" style="stop-color:#865825"/>
				<stop  offset="1" style="stop-color:#805020"/>
			</linearGradient>
			<path fill="url(#SVGID_1_)" d="M4.149,50.729c0,0,7.095-26.117,36.254-29.018c29.158-2.902,84.98,21.405,111.236-10.659
				c0,0-10.686,28.387-70.448,17.594C21.421,17.857,10.181,38.217,4.149,50.729z"/>
			<linearGradient id="SVGID_2_" gradientUnits="userSpaceOnUse" x1="58.8589" y1="23.6299" x2="195.1777" y2="23.6299">
				<stop  offset="0" style="stop-color:#C4992F"/>
				<stop  offset="0.0123" style="stop-color:#C4992F"/>
				<stop  offset="0.1036" style="stop-color:#D2B14A"/>
				<stop  offset="0.2542" style="stop-color:#E7D472"/>
				<stop  offset="0.3743" style="stop-color:#F4EA8A"/>
				<stop  offset="0.4479" style="stop-color:#F9F293"/>
				<stop  offset="0.529" style="stop-color:#F6EE90"/>
				<stop  offset="0.6163" style="stop-color:#ECE187"/>
				<stop  offset="0.7065" style="stop-color:#DCCB77"/>
				<stop  offset="0.7987" style="stop-color:#C6AD62"/>
				<stop  offset="0.8925" style="stop-color:#A98647"/>
				<stop  offset="0.9862" style="stop-color:#865825"/>
				<stop  offset="1" style="stop-color:#805020"/>
			</linearGradient>
			<path fill="url(#SVGID_2_)" d="M58.859,34.528c0,0,16.211-19.273,45.985-21.642c29.773-2.369,73.908,23.62,90.334,11.528
				c0,0-9.754,8.741-34.09,2.389C136.75,20.445,97.574,3.609,58.859,34.528z"/>
			<linearGradient id="SVGID_3_" gradientUnits="userSpaceOnUse" x1="165.1309" y1="34.0381" x2="195.8516" y2="34.0381">
				<stop  offset="0" style="stop-color:#C4992F"/>
				<stop  offset="0.0123" style="stop-color:#C4992F"/>
				<stop  offset="0.1036" style="stop-color:#D2B14A"/>
				<stop  offset="0.2542" style="stop-color:#E7D472"/>
				<stop  offset="0.3743" style="stop-color:#F4EA8A"/>
				<stop  offset="0.4479" style="stop-color:#F9F293"/>
				<stop  offset="0.529" style="stop-color:#F6EE90"/>
				<stop  offset="0.6163" style="stop-color:#ECE187"/>
				<stop  offset="0.7065" style="stop-color:#DCCB77"/>
				<stop  offset="0.7987" style="stop-color:#C6AD62"/>
				<stop  offset="0.8925" style="stop-color:#A98647"/>
				<stop  offset="0.9862" style="stop-color:#865825"/>
				<stop  offset="1" style="stop-color:#805020"/>
			</linearGradient>
			<path fill="url(#SVGID_3_)" d="M165.131,31.123c0,0,17.914,5.083,30.143-1.242l0.578,8.306
				C195.852,38.186,175.168,38.769,165.131,31.123z"/>
		</g>
	</g>
	<g>
		<path fill="#FFFFFF" d="M28.036,49.094c1.93,0,3.73,0.217,5.403,0.654c1.675,0.439,3.135,1.074,4.381,1.908
			c1.245,0.834,2.229,1.855,2.954,3.064c0.723,1.211,1.084,2.576,1.084,4.104c0,1.625-0.421,3.041-1.266,4.24
			c-0.844,1.199-1.948,2.191-3.315,2.973c-1.365,0.781-2.919,1.363-4.66,1.74s-3.511,0.562-5.304,0.562h-5.546
			c-0.803,0-1.581,0.004-2.331,0.018c-0.75,0.01-1.566,0.035-2.45,0.076c-0.242,0-0.415-0.072-0.522-0.215s-0.161-0.295-0.161-0.459
			c0.026-0.344,0.127-0.539,0.302-0.578c0.174-0.039,0.409-0.061,0.703-0.061c0.643,0,1.139-0.064,1.486-0.199
			c0.348-0.131,0.603-0.309,0.765-0.533c0.16-0.225,0.261-0.479,0.301-0.764c0.04-0.281,0.061-0.568,0.061-0.854V52.662
			c0-0.285-0.021-0.568-0.061-0.854s-0.141-0.539-0.301-0.764c-0.162-0.223-0.417-0.402-0.765-0.533s-0.844-0.199-1.486-0.199
			c-0.294,0-0.529-0.02-0.703-0.061c-0.175-0.039-0.275-0.234-0.302-0.578c0-0.164,0.054-0.316,0.161-0.459s0.28-0.213,0.522-0.213
			c0.884,0.039,1.7,0.066,2.45,0.074c0.75,0.014,1.528,0.018,2.331,0.018H28.036z M36.997,58.824c0-1.242-0.222-2.391-0.664-3.447
			c-0.44-1.059-1.083-1.973-1.927-2.746c-0.845-0.771-1.89-1.371-3.135-1.799c-1.246-0.426-2.659-0.641-4.239-0.641
			c-0.216,0-1.261,0.012-3.135,0.029v14.916c0,0.836,0.327,1.387,0.985,1.664c0.656,0.273,1.667,0.412,3.032,0.412
			c1.634,0,3.027-0.205,4.179-0.611c1.151-0.404,2.09-0.977,2.814-1.709c0.722-0.73,1.251-1.611,1.587-2.637
			C36.828,61.229,36.997,60.084,36.997,58.824z"/>
		<path fill="#FFFFFF" d="M60.021,59.158c1.017,1.221,2.049,2.447,3.094,3.676c1.045,1.23,2.25,2.385,3.616,3.463
			c0.375,0.223,0.743,0.408,1.105,0.549c0.361,0.145,0.796,0.234,1.306,0.275c0.213,0.021,0.429,0.045,0.643,0.074
			c0.214,0.031,0.335,0.221,0.361,0.564c0,0.164-0.054,0.316-0.16,0.459c-0.108,0.143-0.296,0.215-0.562,0.215
			c-0.429-0.021-0.784-0.037-1.065-0.047c-0.281-0.012-0.541-0.02-0.783-0.029c-0.241-0.014-0.495-0.018-0.764-0.018
			c-0.268,0-0.603,0-1.004,0c-1.125-0.16-2.063-0.451-2.813-0.867s-1.486-1.014-2.21-1.785c-0.75-0.773-1.447-1.551-2.089-2.334
			c-0.643-0.783-1.272-1.561-1.89-2.334c-0.188-0.201-0.361-0.385-0.521-0.549c-0.161-0.164-0.349-0.291-0.563-0.381
			c-0.216-0.092-0.481-0.162-0.804-0.213c-0.321-0.051-0.723-0.078-1.205-0.078h-1.165v4.973c0,0.285,0.02,0.572,0.06,0.854
			c0.041,0.285,0.141,0.539,0.301,0.764c0.161,0.225,0.416,0.402,0.765,0.533c0.348,0.135,0.844,0.199,1.486,0.199
			c0.267,0,0.494,0.021,0.683,0.061c0.188,0.039,0.295,0.234,0.322,0.578c0,0.164-0.054,0.316-0.161,0.459s-0.296,0.215-0.562,0.215
			c-1.741-0.062-3.416-0.094-5.023-0.094c-0.803,0-1.581,0.004-2.33,0.018c-0.75,0.01-1.555,0.035-2.411,0.076
			c-0.268,0-0.455-0.072-0.562-0.215s-0.161-0.295-0.161-0.459c0.027-0.344,0.128-0.539,0.302-0.578
			c0.175-0.039,0.409-0.061,0.704-0.061c0.643,0,1.138-0.064,1.486-0.199c0.349-0.131,0.603-0.309,0.764-0.533
			c0.16-0.225,0.261-0.479,0.302-0.764c0.04-0.281,0.06-0.568,0.06-0.854V52.693c0-0.283-0.02-0.57-0.06-0.855
			c-0.041-0.283-0.142-0.537-0.302-0.764c-0.161-0.221-0.415-0.406-0.764-0.547c-0.349-0.143-0.844-0.215-1.486-0.215
			c-0.295,0-0.529-0.02-0.704-0.061c-0.174-0.039-0.274-0.234-0.302-0.578c0-0.164,0.054-0.316,0.161-0.459s0.295-0.213,0.562-0.213
			c0.856,0.039,1.667,0.066,2.433,0.074c0.762,0.014,1.547,0.018,2.35,0.018h6.911c1.634,0.021,3.027,0.178,4.179,0.473
			s2.096,0.672,2.834,1.131c0.735,0.455,1.278,0.977,1.626,1.568c0.349,0.59,0.522,1.189,0.522,1.801c0,0.547-0.147,1.08-0.442,1.6
			s-0.723,1.002-1.285,1.449s-1.246,0.85-2.049,1.205C61.949,58.676,61.038,58.957,60.021,59.158z M55.359,50.221
			c-0.562,0-1.031,0.037-1.406,0.107s-0.663,0.203-0.863,0.395c-0.201,0.193-0.342,0.453-0.422,0.777
			c-0.08,0.32-0.12,0.738-0.12,1.244v5.836h3.536c1.365,0,2.444-0.146,3.234-0.441c0.789-0.293,1.386-0.652,1.788-1.078
			c0.401-0.426,0.663-0.885,0.783-1.381c0.12-0.498,0.181-0.947,0.181-1.355c0-0.484-0.107-0.979-0.321-1.473
			c-0.216-0.496-0.576-0.938-1.085-1.324c-0.509-0.385-1.192-0.697-2.049-0.943C57.757,50.344,56.671,50.221,55.359,50.221z"/>
		<path fill="#FFFFFF" d="M79.469,64.771c0,0.285,0.02,0.572,0.06,0.854c0.041,0.285,0.141,0.539,0.301,0.764
			c0.161,0.225,0.415,0.402,0.764,0.533c0.348,0.135,0.844,0.199,1.487,0.199c0.294,0,0.528,0.021,0.702,0.061
			c0.176,0.039,0.288,0.234,0.343,0.578c0,0.164-0.061,0.316-0.182,0.459s-0.302,0.215-0.543,0.215
			c-1.741-0.062-3.402-0.094-4.982-0.094c-0.804,0-1.594,0.004-2.37,0.018c-0.778,0.01-1.595,0.035-2.451,0.076
			c-0.269,0-0.456-0.072-0.563-0.215s-0.16-0.295-0.16-0.459c0.027-0.344,0.134-0.539,0.321-0.578
			c0.187-0.039,0.416-0.061,0.684-0.061c0.643,0,1.138-0.064,1.486-0.199c0.349-0.131,0.603-0.309,0.764-0.533
			s0.262-0.479,0.302-0.764c0.04-0.281,0.073-0.568,0.101-0.854V52.662c-0.027-0.285-0.061-0.568-0.101-0.854
			s-0.141-0.539-0.302-0.764c-0.161-0.223-0.415-0.402-0.764-0.533s-0.844-0.199-1.486-0.199c-0.268,0-0.497-0.02-0.684-0.061
			c-0.188-0.039-0.294-0.234-0.321-0.578c0-0.164,0.053-0.316,0.16-0.459s0.295-0.213,0.563-0.213
			c0.856,0.039,1.667,0.066,2.431,0.074c0.764,0.014,1.548,0.018,2.352,0.018c1.607,0,3.28-0.031,5.021-0.092
			c0.241,0,0.422,0.07,0.543,0.213s0.182,0.295,0.182,0.459c-0.055,0.344-0.167,0.539-0.343,0.578
			c-0.174,0.041-0.408,0.061-0.702,0.061c-0.644,0-1.14,0.068-1.487,0.199c-0.349,0.131-0.603,0.311-0.764,0.533
			c-0.16,0.225-0.26,0.479-0.301,0.764c-0.04,0.285-0.06,0.568-0.06,0.854V64.771z"/>
		<path fill="#FFFFFF" d="M104.822,51.809c0.295-0.652,0.309-1.062,0.039-1.236c-0.268-0.17-0.869-0.26-1.807-0.26
			c-0.295,0-0.529-0.02-0.703-0.061c-0.176-0.039-0.275-0.234-0.301-0.578c0-0.164,0.053-0.316,0.16-0.459
			c0.105-0.143,0.281-0.213,0.523-0.213c0.855,0.039,1.6,0.066,2.229,0.074c0.629,0.014,1.346,0.018,2.15,0.018
			c0.402,0,0.742,0,1.023,0c0.283,0,0.557-0.004,0.824-0.018c0.27-0.008,0.549-0.018,0.844-0.029
			c0.295-0.01,0.656-0.023,1.086-0.045c0.268,0,0.455,0.07,0.562,0.213c0.105,0.143,0.16,0.295,0.16,0.459
			c-0.027,0.344-0.129,0.539-0.301,0.578c-0.176,0.041-0.408,0.061-0.703,0.061c-1.02,0-1.824,0.143-2.412,0.428
			c-0.588,0.283-1.098,0.834-1.525,1.645c-0.457,0.918-0.865,1.752-1.227,2.504s-0.779,1.615-1.246,2.594
			c-0.469,0.977-0.943,1.971-1.426,2.988l-3.857,8.176h-1.89c-1.446-2.99-2.72-5.645-3.817-7.963
			c-0.48-0.994-0.951-1.965-1.405-2.912c-0.456-0.943-0.864-1.789-1.226-2.531c-0.362-0.742-0.758-1.562-1.186-2.457
			c-0.216-0.406-0.423-0.758-0.623-1.053c-0.201-0.295-0.422-0.537-0.663-0.73s-0.516-0.352-0.824-0.473
			c-0.308-0.121-0.676-0.215-1.104-0.275c-0.374-0.061-0.638-0.113-0.783-0.152c-0.147-0.041-0.221-0.225-0.221-0.551
			c0-0.344,0.153-0.533,0.461-0.562c0.309-0.031,0.69-0.045,1.145-0.045c1.795,0.02,3.183,0.27,4.16,0.746
			c0.977,0.477,1.773,1.297,2.392,2.457l5.826,11.895h0.12L104.822,51.809z"/>
		<path fill="#FFFFFF" d="M130.658,49.094c0.295,0,0.543,0.049,0.744,0.152c0.201,0.1,0.301,0.295,0.301,0.58l0.121,4.27
			c0,0.205-0.127,0.355-0.383,0.457c-0.254,0.104-0.488,0.152-0.701,0.152c-0.295,0-0.562-0.045-0.805-0.137
			c-0.242-0.094-0.389-0.229-0.443-0.412c-0.133-0.691-0.287-1.275-0.461-1.754c-0.174-0.477-0.4-0.869-0.682-1.174
			c-0.283-0.305-0.645-0.527-1.086-0.67s-1.012-0.225-1.707-0.246h-5.385v7.748h7.273c0.213,0.021,0.367,0.104,0.461,0.242
			c0.094,0.145,0.141,0.295,0.141,0.459s-0.047,0.307-0.141,0.428c-0.094,0.123-0.248,0.184-0.461,0.184h-7.273v5.764
			c0.027,0.207,0.053,0.424,0.08,0.658c0.027,0.232,0.127,0.451,0.301,0.654c0.174,0.205,0.449,0.369,0.824,0.504
			c0.375,0.133,0.912,0.189,1.607,0.168h3.697c0.695-0.021,1.266-0.088,1.707-0.199c0.443-0.111,0.809-0.305,1.104-0.578
			c0.295-0.275,0.551-0.637,0.766-1.082c0.215-0.451,0.455-1.008,0.723-1.68c0.105-0.203,0.289-0.334,0.543-0.396
			s0.527-0.07,0.822-0.031c0.217,0.041,0.436,0.117,0.664,0.23c0.227,0.111,0.328,0.27,0.303,0.473l-0.807,3.844
			c-0.078,0.283-0.207,0.461-0.381,0.533c-0.174,0.07-0.436,0.105-0.783,0.105h-13.26c-0.803,0-1.586,0.004-2.35,0.018
			c-0.764,0.01-1.588,0.035-2.473,0.076c-0.24,0-0.416-0.072-0.523-0.215c-0.105-0.143-0.158-0.295-0.158-0.459
			c0.025-0.344,0.127-0.539,0.301-0.578s0.41-0.061,0.703-0.061c0.643,0,1.139-0.064,1.486-0.199
			c0.348-0.131,0.604-0.309,0.764-0.533c0.162-0.225,0.262-0.479,0.303-0.764c0.041-0.281,0.061-0.568,0.061-0.854V52.662
			c0-0.285-0.02-0.568-0.061-0.854s-0.141-0.539-0.303-0.764c-0.16-0.223-0.416-0.402-0.764-0.533s-0.844-0.199-1.486-0.199
			c-0.293,0-0.529-0.02-0.703-0.061c-0.174-0.039-0.275-0.234-0.301-0.578c0-0.164,0.053-0.316,0.158-0.459
			c0.107-0.143,0.283-0.213,0.523-0.213c0.885,0.039,1.701,0.066,2.451,0.074c0.75,0.014,1.527,0.018,2.332,0.018H130.658z"/>
		<path fill="#CECECE" d="M158.826,62.91c0,1.078-0.307,2-0.926,2.762c-0.613,0.764-1.398,1.389-2.35,1.875
			c-0.949,0.488-1.994,0.846-3.135,1.066c-1.139,0.225-2.229,0.338-3.273,0.338c-1.607,0-3.02-0.168-4.24-0.504
			c-1.219-0.336-2.229-0.777-3.033-1.326c-0.803-0.549-1.414-1.174-1.826-1.877c-0.418-0.699-0.625-1.428-0.625-2.18V52.662
			c0-0.285-0.02-0.568-0.061-0.854c-0.039-0.285-0.141-0.539-0.301-0.764c-0.16-0.223-0.414-0.402-0.764-0.533
			c-0.348-0.131-0.842-0.199-1.486-0.199c-0.295,0-0.529-0.02-0.703-0.061c-0.174-0.039-0.275-0.234-0.301-0.578
			c0-0.164,0.053-0.316,0.16-0.459s0.295-0.213,0.562-0.213c0.855,0.039,1.66,0.066,2.412,0.074c0.75,0.014,1.525,0.018,2.328,0.018
			c1.609,0,3.281-0.031,5.023-0.092c0.268,0,0.455,0.07,0.562,0.213s0.162,0.295,0.162,0.459c-0.027,0.303-0.107,0.486-0.242,0.547
			s-0.322,0.092-0.562,0.092c-0.697,0-1.225,0.068-1.586,0.199c-0.363,0.131-0.639,0.305-0.824,0.52
			c-0.189,0.213-0.301,0.463-0.344,0.746c-0.039,0.285-0.059,0.58-0.059,0.885v9.518c0,0.529,0.064,1.082,0.201,1.662
			c0.135,0.578,0.422,1.113,0.863,1.602c0.441,0.486,1.084,0.895,1.93,1.219c0.842,0.328,1.975,0.49,3.395,0.49
			c1.367,0,2.484-0.135,3.355-0.398c0.869-0.262,1.561-0.613,2.068-1.051s0.865-0.926,1.066-1.465
			c0.199-0.539,0.301-1.084,0.301-1.631v-8.025c0-0.992-0.035-1.777-0.102-2.348c-0.066-0.568-0.207-0.996-0.422-1.281
			c-0.213-0.285-0.527-0.463-0.943-0.533c-0.414-0.07-0.959-0.107-1.627-0.107c-0.27,0-0.496-0.02-0.684-0.061
			c-0.188-0.039-0.295-0.234-0.322-0.578c0-0.164,0.053-0.316,0.162-0.459c0.107-0.143,0.295-0.213,0.562-0.213
			c0.857,0.039,1.619,0.066,2.291,0.074c0.668,0.014,1.404,0.018,2.209,0.018c0.803,0,1.539-0.004,2.211-0.018
			c0.668-0.008,1.432-0.035,2.289-0.074c0.27,0,0.455,0.07,0.564,0.213c0.105,0.143,0.16,0.295,0.16,0.459
			c-0.029,0.303-0.109,0.486-0.242,0.547s-0.32,0.092-0.562,0.092c-0.725,0-1.305,0.031-1.746,0.094
			c-0.443,0.061-0.779,0.223-1.006,0.486c-0.229,0.264-0.375,0.672-0.443,1.221c-0.066,0.549-0.1,1.312-0.1,2.287V62.91z"/>
		<path fill="#CECECE" d="M174.295,67.73c0.857,0,1.627-0.102,2.312-0.305c0.682-0.205,1.258-0.469,1.727-0.795
			c0.469-0.324,0.824-0.693,1.064-1.113c0.242-0.416,0.361-0.838,0.361-1.264c0-0.836-0.336-1.525-1.006-2.074
			c-0.668-0.551-1.498-1.027-2.49-1.436c-0.99-0.404-2.07-0.793-3.234-1.158s-2.256-0.789-3.273-1.266
			c-1.02-0.477-1.869-1.062-2.553-1.756c-0.684-0.689-1.039-1.564-1.064-2.621c-0.027-0.955,0.174-1.779,0.604-2.471
			c0.428-0.691,1.037-1.256,1.828-1.693c0.789-0.438,1.721-0.764,2.793-0.977c1.07-0.213,2.223-0.32,3.455-0.32
			c0.883,0,1.781,0.074,2.691,0.213c0.91,0.143,1.729,0.367,2.451,0.672c0.725,0.307,1.312,0.701,1.768,1.191
			c0.455,0.486,0.684,1.076,0.684,1.77c0,0.73-0.328,1.336-0.984,1.812c-0.656,0.479-1.506,0.719-2.553,0.719
			c-0.695-0.043-1.184-0.178-1.465-0.414s-0.422-0.416-0.422-0.539c0-0.041,0.102-0.086,0.301-0.137
			c0.201-0.051,0.422-0.137,0.662-0.26c0.242-0.123,0.463-0.293,0.664-0.508c0.199-0.213,0.301-0.504,0.301-0.875
			c0-0.775-0.389-1.375-1.166-1.795c-0.777-0.418-1.74-0.627-2.893-0.627c-0.883,0-1.641,0.084-2.27,0.26
			c-0.629,0.172-1.145,0.398-1.549,0.674c-0.4,0.277-0.695,0.596-0.883,0.965s-0.281,0.746-0.281,1.133
			c0,0.758,0.268,1.371,0.803,1.84c0.537,0.471,1.34,0.932,2.412,1.381c1.205,0.486,2.432,0.936,3.676,1.34
			c1.246,0.408,2.385,0.875,3.418,1.404c1.029,0.529,1.873,1.17,2.531,1.922c0.654,0.754,0.982,1.729,0.982,2.93
			c0,0.773-0.248,1.488-0.742,2.15c-0.496,0.66-1.166,1.23-2.01,1.707c-0.844,0.479-1.842,0.855-2.994,1.129
			c-1.15,0.273-2.369,0.412-3.656,0.412c-2.812,0-4.961-0.365-6.449-1.098c-1.486-0.732-2.23-1.832-2.23-3.295
			c0-0.732,0.33-1.338,0.986-1.814c0.656-0.479,1.506-0.719,2.551-0.719c0.697,0.041,1.186,0.18,1.467,0.414
			c0.281,0.232,0.42,0.412,0.42,0.533c0,0.043-0.072,0.086-0.219,0.137c-0.148,0.053-0.316,0.139-0.502,0.258
			c-0.188,0.123-0.355,0.291-0.502,0.506c-0.148,0.213-0.223,0.504-0.223,0.869c0,0.914,0.369,1.643,1.105,2.18
			C171.436,67.461,172.635,67.73,174.295,67.73z"/>
	</g>
</g>
</svg>
